<mxfile host="app.diagrams.net" modified="2022-06-08T10:28:34.779Z" agent="5.0 (Macintosh; Intel Mac OS X 10_15_5) AppleWebKit/537.36 (KHTML, like Gecko) Chrome/100.0.4896.127 Safari/537.36" etag="lM3E6M6M0zRwUEA6IXqw" version="19.0.2" type="github">
  <diagram id="lDH8dOn5EeC3TFNrhBwo" name="Page-1">
    <mxGraphModel dx="728" dy="1692" grid="1" gridSize="10" guides="1" tooltips="1" connect="1" arrows="1" fold="1" page="1" pageScale="1" pageWidth="827" pageHeight="1169" math="0" shadow="0">
      <root>
        <mxCell id="0" />
        <mxCell id="1" parent="0" />
        <mxCell id="H2gyoVn5jhSMq1rNVPaN-1" value="" style="rounded=0;whiteSpace=wrap;html=1;" parent="1" vertex="1">
          <mxGeometry x="150" y="160" width="230" height="320" as="geometry" />
        </mxCell>
        <mxCell id="H2gyoVn5jhSMq1rNVPaN-2" value="" style="rounded=0;whiteSpace=wrap;html=1;" parent="1" vertex="1">
          <mxGeometry x="220" y="270" width="120" height="60" as="geometry" />
        </mxCell>
        <mxCell id="H2gyoVn5jhSMq1rNVPaN-3" value="Run" style="text;html=1;strokeColor=none;fillColor=none;align=center;verticalAlign=middle;whiteSpace=wrap;rounded=0;" parent="1" vertex="1">
          <mxGeometry x="250" y="285" width="60" height="30" as="geometry" />
        </mxCell>
        <mxCell id="9I0-boqcDPnJypNhuAT8-1" value="controller" style="text;html=1;strokeColor=#6c8ebf;fillColor=#dae8fc;align=center;verticalAlign=middle;whiteSpace=wrap;rounded=0;" vertex="1" parent="1">
          <mxGeometry x="300" y="170" width="60" height="30" as="geometry" />
        </mxCell>
        <mxCell id="9I0-boqcDPnJypNhuAT8-2" value="" style="rounded=0;whiteSpace=wrap;html=1;" vertex="1" parent="1">
          <mxGeometry x="1420" y="170" width="160" height="195" as="geometry" />
        </mxCell>
        <mxCell id="9I0-boqcDPnJypNhuAT8-3" value="Reflector" style="text;html=1;strokeColor=none;fillColor=none;align=center;verticalAlign=middle;whiteSpace=wrap;rounded=0;" vertex="1" parent="1">
          <mxGeometry x="1500" y="185" width="60" height="30" as="geometry" />
        </mxCell>
        <mxCell id="9I0-boqcDPnJypNhuAT8-4" value="" style="rounded=0;whiteSpace=wrap;html=1;" vertex="1" parent="1">
          <mxGeometry x="780" y="190" width="200" height="390" as="geometry" />
        </mxCell>
        <mxCell id="9I0-boqcDPnJypNhuAT8-5" value="Run" style="text;html=1;strokeColor=none;fillColor=none;align=center;verticalAlign=middle;whiteSpace=wrap;rounded=0;" vertex="1" parent="1">
          <mxGeometry x="890" y="210" width="60" height="30" as="geometry" />
        </mxCell>
        <mxCell id="9I0-boqcDPnJypNhuAT8-6" value="" style="rounded=0;whiteSpace=wrap;html=1;" vertex="1" parent="1">
          <mxGeometry x="830" y="277.5" width="120" height="60" as="geometry" />
        </mxCell>
        <mxCell id="9I0-boqcDPnJypNhuAT8-7" value="NewReflector" style="text;html=1;strokeColor=none;fillColor=none;align=center;verticalAlign=middle;whiteSpace=wrap;rounded=0;" vertex="1" parent="1">
          <mxGeometry x="850" y="295" width="80" height="25" as="geometry" />
        </mxCell>
        <mxCell id="9I0-boqcDPnJypNhuAT8-8" value="r.Run" style="rounded=0;whiteSpace=wrap;html=1;" vertex="1" parent="1">
          <mxGeometry x="830" y="380" width="120" height="60" as="geometry" />
        </mxCell>
        <mxCell id="9I0-boqcDPnJypNhuAT8-9" value="" style="rounded=0;whiteSpace=wrap;html=1;" vertex="1" parent="1">
          <mxGeometry x="1200" y="360" width="200" height="220" as="geometry" />
        </mxCell>
        <mxCell id="9I0-boqcDPnJypNhuAT8-10" value="ListAndWatch" style="rounded=0;whiteSpace=wrap;html=1;" vertex="1" parent="1">
          <mxGeometry x="1230.5" y="420" width="99" height="40" as="geometry" />
        </mxCell>
        <mxCell id="9I0-boqcDPnJypNhuAT8-11" value="Run" style="text;html=1;strokeColor=#82b366;fillColor=#d5e8d4;align=center;verticalAlign=middle;whiteSpace=wrap;rounded=0;" vertex="1" parent="1">
          <mxGeometry x="1320" y="380" width="60" height="30" as="geometry" />
        </mxCell>
        <mxCell id="9I0-boqcDPnJypNhuAT8-12" value="" style="rounded=0;whiteSpace=wrap;html=1;" vertex="1" parent="1">
          <mxGeometry x="400" y="-720" width="290" height="370" as="geometry" />
        </mxCell>
        <mxCell id="9I0-boqcDPnJypNhuAT8-14" value="sharedInformerFactory" style="text;html=1;strokeColor=#82b366;fillColor=#d5e8d4;align=center;verticalAlign=middle;whiteSpace=wrap;rounded=0;" vertex="1" parent="1">
          <mxGeometry x="550" y="-700" width="123" height="40" as="geometry" />
        </mxCell>
        <mxCell id="9I0-boqcDPnJypNhuAT8-15" value="struct 结构体" style="text;html=1;strokeColor=#82b366;fillColor=#d5e8d4;align=center;verticalAlign=middle;whiteSpace=wrap;rounded=0;" vertex="1" parent="1">
          <mxGeometry x="1320" y="-1000" width="123" height="40" as="geometry" />
        </mxCell>
        <mxCell id="9I0-boqcDPnJypNhuAT8-17" value="Core()" style="rounded=0;whiteSpace=wrap;html=1;fillColor=#dae8fc;strokeColor=#6c8ebf;" vertex="1" parent="1">
          <mxGeometry x="450" y="-600" width="140" height="60" as="geometry" />
        </mxCell>
        <mxCell id="9I0-boqcDPnJypNhuAT8-18" value="function函数" style="rounded=0;whiteSpace=wrap;html=1;fillColor=#dae8fc;strokeColor=#6c8ebf;" vertex="1" parent="1">
          <mxGeometry x="1320" y="-940" width="120" height="40" as="geometry" />
        </mxCell>
        <mxCell id="9I0-boqcDPnJypNhuAT8-19" value="" style="rounded=0;whiteSpace=wrap;html=1;" vertex="1" parent="1">
          <mxGeometry x="850" y="-720" width="960" height="850" as="geometry" />
        </mxCell>
        <mxCell id="9I0-boqcDPnJypNhuAT8-20" value="core" style="text;html=1;strokeColor=#666666;fillColor=#f5f5f5;align=center;verticalAlign=middle;whiteSpace=wrap;rounded=0;fontColor=#333333;" vertex="1" parent="1">
          <mxGeometry x="1690" y="-710" width="100" height="40" as="geometry" />
        </mxCell>
        <mxCell id="9I0-boqcDPnJypNhuAT8-21" value="package包" style="text;html=1;strokeColor=#666666;fillColor=#f5f5f5;align=center;verticalAlign=middle;whiteSpace=wrap;rounded=0;fontColor=#333333;" vertex="1" parent="1">
          <mxGeometry x="1320" y="-880" width="120" height="40" as="geometry" />
        </mxCell>
        <mxCell id="9I0-boqcDPnJypNhuAT8-22" value="New" style="rounded=0;whiteSpace=wrap;html=1;fillColor=#dae8fc;strokeColor=#6c8ebf;" vertex="1" parent="1">
          <mxGeometry x="940" y="-600" width="120" height="60" as="geometry" />
        </mxCell>
        <mxCell id="9I0-boqcDPnJypNhuAT8-23" value="" style="endArrow=classic;html=1;rounded=0;entryX=0.5;entryY=0;entryDx=0;entryDy=0;" edge="1" parent="1" target="9I0-boqcDPnJypNhuAT8-17">
          <mxGeometry width="50" height="50" relative="1" as="geometry">
            <mxPoint x="520" y="-760" as="sourcePoint" />
            <mxPoint x="670" y="-560" as="targetPoint" />
          </mxGeometry>
        </mxCell>
        <mxCell id="9I0-boqcDPnJypNhuAT8-24" value="" style="endArrow=classic;html=1;rounded=0;exitX=0.5;exitY=1;exitDx=0;exitDy=0;entryX=0.448;entryY=0.018;entryDx=0;entryDy=0;entryPerimeter=0;" edge="1" parent="1" source="9I0-boqcDPnJypNhuAT8-17" target="9I0-boqcDPnJypNhuAT8-22">
          <mxGeometry width="50" height="50" relative="1" as="geometry">
            <mxPoint x="620" y="-420" as="sourcePoint" />
            <mxPoint x="670" y="-470" as="targetPoint" />
            <Array as="points">
              <mxPoint x="520" y="-500" />
              <mxPoint x="710" y="-540" />
              <mxPoint x="920" y="-640" />
              <mxPoint x="994" y="-640" />
            </Array>
          </mxGeometry>
        </mxCell>
        <mxCell id="9I0-boqcDPnJypNhuAT8-25" value="" style="endArrow=none;dashed=1;html=1;dashPattern=1 3;strokeWidth=2;rounded=0;startArrow=diamondThin;startFill=1;" edge="1" parent="1">
          <mxGeometry width="50" height="50" relative="1" as="geometry">
            <mxPoint x="980" y="-640" as="sourcePoint" />
            <mxPoint x="690" y="-720" as="targetPoint" />
          </mxGeometry>
        </mxCell>
        <mxCell id="9I0-boqcDPnJypNhuAT8-26" value="sharedInformerFactory工程作为实参" style="edgeLabel;html=1;align=center;verticalAlign=middle;resizable=0;points=[];" vertex="1" connectable="0" parent="9I0-boqcDPnJypNhuAT8-25">
          <mxGeometry x="0.2875" y="2" relative="1" as="geometry">
            <mxPoint y="1" as="offset" />
          </mxGeometry>
        </mxCell>
        <mxCell id="9I0-boqcDPnJypNhuAT8-27" value="" style="rounded=0;whiteSpace=wrap;html=1;" vertex="1" parent="1">
          <mxGeometry x="1140" y="-600" width="140" height="200" as="geometry" />
        </mxCell>
        <mxCell id="9I0-boqcDPnJypNhuAT8-28" value="group" style="text;html=1;strokeColor=#82b366;fillColor=#d5e8d4;align=center;verticalAlign=middle;whiteSpace=wrap;rounded=0;" vertex="1" parent="1">
          <mxGeometry x="1200" y="-584" width="60" height="30" as="geometry" />
        </mxCell>
        <mxCell id="9I0-boqcDPnJypNhuAT8-29" value="V1()" style="text;html=1;strokeColor=#6c8ebf;fillColor=#dae8fc;align=center;verticalAlign=middle;whiteSpace=wrap;rounded=0;" vertex="1" parent="1">
          <mxGeometry x="1160" y="-490" width="90" height="40" as="geometry" />
        </mxCell>
        <mxCell id="9I0-boqcDPnJypNhuAT8-30" value="" style="rounded=0;whiteSpace=wrap;html=1;" vertex="1" parent="1">
          <mxGeometry x="1330" y="-599" width="400" height="639" as="geometry" />
        </mxCell>
        <mxCell id="9I0-boqcDPnJypNhuAT8-34" value="New" style="rounded=0;whiteSpace=wrap;html=1;fillColor=#dae8fc;strokeColor=#6c8ebf;" vertex="1" parent="1">
          <mxGeometry x="1350" y="-490" width="100" height="40" as="geometry" />
        </mxCell>
        <mxCell id="9I0-boqcDPnJypNhuAT8-35" value="v1" style="text;html=1;strokeColor=#666666;fillColor=#f5f5f5;align=center;verticalAlign=middle;whiteSpace=wrap;rounded=0;fontColor=#333333;" vertex="1" parent="1">
          <mxGeometry x="1600" y="-580" width="100" height="40" as="geometry" />
        </mxCell>
        <mxCell id="9I0-boqcDPnJypNhuAT8-36" value="k8s.io/client-go/informers/core/v1" style="text;html=1;align=center;verticalAlign=middle;whiteSpace=wrap;rounded=0;fillColor=#ffe6cc;strokeColor=#d79b00;" vertex="1" parent="1">
          <mxGeometry x="1510" y="-520" width="190" height="50" as="geometry" />
        </mxCell>
        <mxCell id="9I0-boqcDPnJypNhuAT8-37" value="path路径" style="text;html=1;align=center;verticalAlign=middle;whiteSpace=wrap;rounded=0;fillColor=#ffe6cc;strokeColor=#d79b00;" vertex="1" parent="1">
          <mxGeometry x="1320" y="-820" width="120" height="50" as="geometry" />
        </mxCell>
        <mxCell id="9I0-boqcDPnJypNhuAT8-38" value="k8s.io/client-go/informers/core" style="text;html=1;align=center;verticalAlign=middle;whiteSpace=wrap;rounded=0;fillColor=#ffe6cc;strokeColor=#d79b00;" vertex="1" parent="1">
          <mxGeometry x="1600" y="-660" width="190" height="50" as="geometry" />
        </mxCell>
        <mxCell id="9I0-boqcDPnJypNhuAT8-41" value="" style="endArrow=classic;html=1;rounded=0;exitX=1;exitY=0.5;exitDx=0;exitDy=0;entryX=0;entryY=0.5;entryDx=0;entryDy=0;" edge="1" parent="1" source="9I0-boqcDPnJypNhuAT8-22" target="9I0-boqcDPnJypNhuAT8-28">
          <mxGeometry width="50" height="50" relative="1" as="geometry">
            <mxPoint x="1070" y="-450" as="sourcePoint" />
            <mxPoint x="1120" y="-500" as="targetPoint" />
          </mxGeometry>
        </mxCell>
        <mxCell id="9I0-boqcDPnJypNhuAT8-42" value="" style="endArrow=classic;html=1;rounded=0;exitX=0.5;exitY=1;exitDx=0;exitDy=0;" edge="1" parent="1" source="9I0-boqcDPnJypNhuAT8-28">
          <mxGeometry width="50" height="50" relative="1" as="geometry">
            <mxPoint x="1040" y="-450" as="sourcePoint" />
            <mxPoint x="1230" y="-490" as="targetPoint" />
          </mxGeometry>
        </mxCell>
        <mxCell id="9I0-boqcDPnJypNhuAT8-43" value="" style="endArrow=classic;html=1;rounded=0;exitX=1;exitY=0.5;exitDx=0;exitDy=0;entryX=0;entryY=0.5;entryDx=0;entryDy=0;" edge="1" parent="1" source="9I0-boqcDPnJypNhuAT8-29" target="9I0-boqcDPnJypNhuAT8-34">
          <mxGeometry width="50" height="50" relative="1" as="geometry">
            <mxPoint x="1300" y="-360" as="sourcePoint" />
            <mxPoint x="1320" y="-380" as="targetPoint" />
          </mxGeometry>
        </mxCell>
        <mxCell id="9I0-boqcDPnJypNhuAT8-44" value="" style="endArrow=classic;html=1;rounded=0;exitX=0.5;exitY=1;exitDx=0;exitDy=0;entryX=0;entryY=0;entryDx=0;entryDy=0;" edge="1" parent="1" source="9I0-boqcDPnJypNhuAT8-34" target="9I0-boqcDPnJypNhuAT8-46">
          <mxGeometry width="50" height="50" relative="1" as="geometry">
            <mxPoint x="1450" y="-390" as="sourcePoint" />
            <mxPoint x="1510.19" y="-380.47" as="targetPoint" />
            <Array as="points" />
          </mxGeometry>
        </mxCell>
        <mxCell id="9I0-boqcDPnJypNhuAT8-46" value="" style="rounded=0;whiteSpace=wrap;html=1;" vertex="1" parent="1">
          <mxGeometry x="1450" y="-360" width="270" height="170" as="geometry" />
        </mxCell>
        <mxCell id="9I0-boqcDPnJypNhuAT8-47" value="version" style="text;html=1;strokeColor=#82b366;fillColor=#d5e8d4;align=center;verticalAlign=middle;whiteSpace=wrap;rounded=0;" vertex="1" parent="1">
          <mxGeometry x="1550" y="-349.5" width="160" height="50" as="geometry" />
        </mxCell>
        <mxCell id="9I0-boqcDPnJypNhuAT8-48" value="" style="shape=image;verticalLabelPosition=bottom;labelBackgroundColor=default;verticalAlign=top;aspect=fixed;imageAspect=0;image=data:image/png,iVBORw0KGgoAAAANSUhEUgAABcAAAAEOCAYAAACuHrQ1AAAACXBIWXMAABYlAAAWJQFJUiTwAAAgAElEQVR4nOzdZ2BUZfr38e/0XtN7IZUOoQsIIoJUBUVQRF27u7a17X+LbnvcXV1117q6rrr27qoIdhBRLAgC0ktoIb2XSZnMPC8mGYgzSSaQBl6fNzBnzrnnPidnziS/c891K7LHT/UihBBCiD6VODSnR9s/uPm7Hm1fCCGEEEIIIYToj5R93QEhhBBCCCGEEEIIIYQQoidIAC6EEEIIIYQQQgghhBDilCQBuBBCCCGEEEIIIYQQQohTkgTgQgghhBBCCCGEEEIIIU5JEoALIYQQQgghhBBCCCGEOCVJAC6EEEIIIYQQQgghhBDilCQBuBBCCCGEEEIIIYQQQohTkgTgQgghhBBCCCGEEEIIIU5JEoALIYQQQgghhBBCCCGEOCVJAC6EEEIIIYQQQgghhBDilCQBuBBCCCGEEEIIIYQQQohTkgTgQgghhBBCCCGEEEIIIU5JEoALIYQQQgghhBBCCCGEOCWp+7oDQohA79+ZhM2sBC9c9WAeW/Ia+7pLQoh+Jix9IDEjJ6C3OVGolFQeymXX8lf6ultCCCGEEEIIIUS/IgG4EP1QuE2N0aQCwGqSL2oIIdpKPXMecTkTUGpU/mXGsDAaqqs48NnKPuyZEEIIIYQQQgjRv5xQshZtiuSKnCuZljy1u/ojhBA/CXL97Fsn8/GPyZlAwuhJbcLvVvaE1D7okRBCCCGEEEII0X8po2Njj3vjS3MuZ+agOcwaPL8buySEEKc+uX72rZP5+CdNmAaB2TcAVUcO9m5nhBBCCCGEEEKIfu6ESqAkOlMAqGuo6ZbOCCF86ho8aNXgAWrrPX3dHdED5PrZt07W428Mj0ZrtQYsb6yto/LgPg598VEf9EoIIYQQQgghhOi/TigAtxsdAByuzOuWzgghfCb/OrevuyB6mFw/+9bJevydaVkoFG2XleXuZcsL/+qbDgkhhBBCCCGEEP3ccdcAn50+C61aC8APRzZ1W4eEEOJUJ9fPvnUyH3+FOvC+dW3BkT7oiRBCCCGEEEIIcXI47gA8IzILAFdjHV8c/rLbOiSEEKc6uX72rVPt+Hs9UiZJCCGEEEIIIYRoT8glUKamTGV47AjUSt8myWEDAFAolNw26fYOt232NrNmzyrWF2wI+vzMATMYFDMEpUIZsN3K7cvZXrozYJtEawIzM2dh09vaLPfiZVfRTt7Z+Q4A01POZEjcMFSKozOGHSw/wCs/vALAvMx5jEoYTYwtDr3GgEatpcndSHV9NZWuclbt/pgP93W9pmq0KZI5WfPJjMrCaQpHp9ajVqlpaHJR5aqiwlXG+9tX9En4csd8B4kR2qDPeVHw9Y5anltb3Wb54vEWJmQbUbVzy6So0s0fXivt8HUvnmRhylAz0Q4NTqsKm1FNfZOH8io3xZVu9hU08usXi7u0LzfMtJMZrwtYvnJ9Ncu/r/M/To/ScPUMBwOT9diMahqbPBwqbuKxFSWs29MQ0mvNGW5k4SQ7yVFazAYlRp2SZg/UupqprPWQW9DAP98tZVK2kYx4LY+uKCe3xN1pu1dPszEkxYACb8BzXq+Ch1eUsiO/KaQ+diQlXM0v5jhJjNASYVfjNKtAoaC8ppmi8iYOFjfy8PKykPo8f6SJqcPNaFrOh/omL7f8twjwnV/DU41EOzWE2dQoFb465nkljXyysZpHPqw84X3paWEGJ+cMXEBmVDZhpnB0Kh1qtYYmdyO1jbXUNFTxzf6vWLl7JctGLKOoupDXtr3ebns9ef1sleZI5az0mZh05jbLq1yVPL7+8TbLzkqdzviUiUSYo9BrdNQ21PJ93nc8veHpgHbnZM4hKyILxTHX591FO/nfzreD9uPSEZcSYY5suw8eN/d/cX+H/f+xoZFDmJZ+JilhaVj0VnRqPQqFkrrGGirrK6ioLWPFtndZX7CBOemzSQ0fwIPrHgzaVm8cfyGEEEIIIYQQQvRPIQfgy0b/DIs+cOItvUbP2JTTOm/A6203QLggZ2nQtgFq62uCBuBLRyxjZNKYoNsk2JP8AfiysZdj0BrbPB9mjuBwxSEWDF9EojMZBW0Lqqq1agxaI5HWKFIi0hibNIF/f/MYBbVFne4mwKJB5zNz4FysBlvAc2qdBZPOQow9jgERWUw4PJF719wTUrvdYUqWgUtmRvCjXW4jO0EXEIBfPSuMqHZCcwC88NmWOlbvcAU8FWdX8YeLIpkw0Ayqti+sV6uIMaiIidIxNMPE+GwTj71XyqtfVQe0E8yVs8JRaQNT+dLqZn8A/utznSyc5MBgVLVZJypCy2OpBh57t5jHP+k4lH32xlhGZZpA+aNzBbBpldhskBirY9xAMzqNAlQKKms9/PmNjm8KAFw9Jxy9QdXu82u21p5wAH7tmTaWTXdis2kCnotwKolwahg0wMiEbBPPflTGYx93fDyumhVGSrze/9jT5OH1Lyr57ZIoUuL0AetbNEqyLGqykgzEhWu7fKOjNy3MXsDZg+b5a0Qfq/XaEG6OIMmZyuzB8zDpLJTUFHUYgPfk9bPVRSOWMSR+RMDyiroyfwA+IWE85w49n2RnKopjCknbjU7iHAkkOpL5wyd3+ZenOVJZOuoy1Kq2HxUGjSFoAH55zuWcPWhewHKP10Piltc4WHWo4/1sce3YnzNxwOno1IE3t2wGOzaDnURHMhlRA/l872omp52BTq1lX9k+lu9cHrBNbxx/IYQQQgghhBBC9E8hB+CFVQU0un0jZZVKFQ6jE4BKVwXu5o7DuaZmNz/kb2n3+fzKPJRKJSatb+RiWW0JXq+XqoYq1uSuDt6fmgJKaopR4Au0AdzNbspqS9l85Hv/egVVR7C2jBJvXU+Jgusm3+QPVypdFZTWFFNUU0h5XTlhpjBibfHEORJQK9UMSxjJNcqf8/tjgqFg0hypXDr6CjKislEqlHi8HvIr8iiuLqS4rgQ8HsLNkURZY4i1x6FVaxibfBp3qu/ij5/+ocO2u8vqHS72HnZhN6vRqhVYLL5ToKraTZPbi8cL3+cGhtibcl2MVClQKECjVmBt2a662k2j20tZlZvNhwJHUi8cY+aWBRHY7b7g1dPkYdfhegrKmigod2MzqYh2qkmN1mGzaYiK0HLnRVGMzTT4RxR3ZOt+F3HHBPNhdo0/3HealDx6dQxD003+ZUWljeTmN+KwqMhINKDVK7l2bkSHAfizN8QxKtvke9DsZechFweKmiitdKNQQLhVTWqMltRYPTr90TDeagytwtD3e12kxeoCJrYLcwSG1cfjP9fFMH6w2R/eFxY3cqSskcPFvvdtfISGWKeWqAgtNpuG6xdEkpNp5IpH8tttc9M+FxajCp3Gdw4pNUruvzLWH7BXVbk5XNxIbmEDTW5IitIwLNWIUqPknIl2gH4Zgv9q8v8xMmkMSoUSr9dLfmUeRyoOU1lfQU1DDXaDjUhLDKkRGejUWkw6CwC1jbUdttuT189WJbXF/msiHL3eldb6bsLcOvFWRiaOQ6v2/YxqGqo5WJqLx+shM3oQGpWGwXHDmJY8lU/2rwKgvL6CwqoC9BodCoUSpykMgEMVB4P2obimmOLqIpQtJ7PN6ECtVFPlqgwp/B4RNYyloy8jyZkCQKO7kQNluRRVF1BeV45OrcNpDCMpLJlwcyR6jZ7pWTMB8Hq9HCgPPnlsbxx/IYQQQgghhBBC9E+KqQsv8hYc6doEWkuGLGHhiMV4vB7+sPI3bC3ZdsIdWTrsYs4Zdh4AL337X97Y/mZI2y0bfglzh5yLQqHgi72f8UA7X7OfkDCeX079VZtlje4mvj3wBQ988UDQbS4beRnTMmag1xrweD28+t0LvN7OKM8MZwZ3TPsNNoPdF8SU5fLpzg9ZsWdl0PUvz7mcKelnYtAa8Xg9vLz+Wd7c/lZI+9xdxqfp+PeNCSg1Sr7ZWsOlD4V2Hjz1i1jGDTaD28t1Dx8OOuobfAH0W79JIsKpAS/s2F/Hk++XsWJTXdB177wgginDzGh1Kmj2cs8rhTyzpqpL+/TtfamYTGqWry1nRJqJuGhfOO6qa+bVz8r429vl/nX/sCichZPsVLuaGX978OBs8XgLd14SA0B+UQN/e7WID38Ivr9zRxi57fwowp2+gHH5F+Xc/tzxh7zb/pUBwO+fyQ95RPyP/WlxOAun+MK+xnoP76yr4M5XSoKu+8cLwpk33o62JcR/Y3UZv3s5+Lqtrp9h59pzjyl34YX1O2q46ckCymrb1iWeO8LIb5ZEY7WqaWxo5uJ7DrElr/G49qsnzEmfzbJxV6BUKCmpKeLdLW/x3u4VQdfNcGZww6RfEm3znRvr93/FX9f8JaTX6YnrZzDPXvACRp2Z7w58TbQ1jjhHPOCre/1l7loe+/oR/7qLBi3inGHn0+Cu508f/JZ9lQcC2luYvYAloy/B6/Xyxw9+w5airZ324YE5D5LgTGJfyR5uX3FLh+tOTDyNqyf8AoPWiNvjZsPBb3h908tB+wK+UivTs2f5b2RW11dx2asXd9qn3jr+xyNxaE6n6yRMPJPUKTPaLDv4xWfkrgoc+f5jBzd/d9x9E0IIIYQQQgghTlbHNQlmcsvovNqGmm4LD1bueo9Gt28k3qCYISFtMyJqGNOzZqJQKMgrP9Ru+A0wJHpYm8fF1YU8/uWD7YbfAE9veJr3t7+H1+tFqVAyPnViu+teOf4abAY7Hq+HL/au5tb3bm43/Ab4z3f/4a3vX8Xj9aBUKDkjY0a76/aUdXsa2HagHoDhA4ykR3U+4jjOrmLEAF+Ji52HXO2G3wD3/SzaF34DX26uZsHfDgcNvwHKaj3c9FQh971ehLuhGVQKLpsZ1tVd8psz0eEPv/cfqeemx/PahN8Ad71awuRf7Ws3/AYY2bKvNHu55cn8dsNvgHc31vHXVwrBE1jLuy+cNdjA3PG+bz9UVjbxyyfy2g2/Ae58pYRfPpFHZaXvfTh3vI2ZQw1des3VGypZ9s8jAeE3+I7P0x+UgteDVqfigkmBJYL60viUiSgVSqrrq/j7qr+0G34D7Crbxae7PvA/zi3bF/Lr9MT188fGxI3BoPN9ayEnaSxxjni8Xi+7Crdz90e/bxN+A7y69VWufv1nXPbqxe0GzqkRaYBv5Hgo4TeA0+S7+VJQmdfpuotHXIxBa6S2sYZX1j/HPWv+1m5fAJ7Z+Awrt77jf1xa2/HNmla9cfx7ks5kCVjm9cokmEIIIYQQQgghRHuOKwCPsEYBUFrbfSUMSl1lFFcXABBrTwhpm4vH/AyD1kh9o4vnvn2qw3Xj7PH+/9c2VPPw5//gs/1rOn2N5zc9x/7SvQDYDYE1gQFunHAjKWEDaPY088n29/nHl/8Iqf9v7niLXYXbW9q2h7RNd3vrywpfIKlXcu3ZwffvWDfOcaIzqMEL737V/ujsWcOMjG0pG7Jzfx1XPNZ+OY1jPfd5Nc9/XA4eLxFODf/4WVRoO9KO9dtqmfXHg3y+sz7o88GC2mOVVDb7/qP0khTe+Q2CFZvqOFLcCF4PBwr7dnTzDfPD/aPpn/qgjE+3tR/et/p0m4unPyiDZi9anYrr50WE/HrfbK3hun8XdrjO459UUl3jO+YxzpArMPWK1hrRVa4q9pR3HmgfLD+Ax+uhur6Kj/eGPlFuT1w/f2x47Ig2cxu4mlys2Po2v/7gV0HnVACobuz4WwZRlmgAyuo6r2sPMCp6JMaWCTn3Fu/ucN3bJ99BtC0Gd7Ob1za+xFs7/hfSazy/6Xka3b73WWF1aNeY3jj+PcEQFknKtLmEZwwOeK6hqqIPeiSEEEIIIYQQQpwcjisADzP6RuYWtgTW3aW1fqvTFMaQyEEdrnvD+BtIdCTj9Xr5ZNeHnU5QFm7ylWlo9jTz3g9vd2nkX16Fr3atWWfBom07+m5K8umMT5kMwO6iHf7J5kK1NX8zAHqtgdExnX/9vbu99GUNB1smWBzfWue6A+MG+gKt/OIGnvqs/QB84qCWCSO9Hv7zflmX+nTPu2UcLPCFWulxgZPghaTZy/vrKlj2YOcjTzvrS0O9BxRK7lwazW8XhuE0dfy2ufKhPG56JI9HPux4IsmelhDlGwG/blsN//409L488WklX2/31bSOjwytDrmnyRNyCZ3KGjcASlUHM7H2geJqX835GHss/3f6r0lzpHa4/vqCDdzz0Z/43co7KHWFfo731PXzWPG2ozf88iuP8NCa+3l6w9Mn1KbTFA5AUYj9Hh6fgwIFTc1NvL3r3XbXm50+i5GJvgmNv96/Nugklh1xNdVR31TP6t2fhLR+bxz/7uYckM3Iy24kcfxkdLa2k3l6vVB5MPRvIAghhBBCCCGEED81XR6COTJ6uH9UX25J9/7R/c3BrxifOgmlQsnklCntfs1+WvJUxrWEznuKdvL0ho5HfwPYjb7RzbsKt/Hq1te61K/qhhoAlAolWlXbQHBSyhTUKt9h3F20kwsGLepS23rN0RITsZZYyO/9Gq2fbqzm0ljfJJR3zHcElAppdcNMu7++9WebazpsM7Wl/EhdnZf0WB03x3YtyC6tbiIRHU6zqkvbtfrwuyp+GcIkmqH4eEMls8fYMRhVXDg9jPNPt1Ne3UxZlZuyqmaKKt3sOtzgr1eeW+Imt8TdLa99vBaMNqPR+o7dRxs6/lkF8+n31Ywd7GtjwWgzb37b9Tba0z8KxARad2Atg2KHolapyUkay7D4HKrqK6iqr6SyrpIKVymHKw6z5sAaf+Dd2Y23H+vJ6+exwsy+G365pXu57b1fnnB72WGZmFsm/Ay13wkt3+SpqOv45sDp6dNQK9VU11d1WJKqPTe9/Qug8xHs0HvHv7tFDR2FWq8N+lzVoQPUlZw8Yb4QQgghhBBCCNHbuh6Ax41GgQJ3s5tVuZ92a2fWHvyCy1xXYTPYSQ4LPvrSorVw/sgL0ao1VNVX8u+vHu203VlpZ6NV+8KDPZ18FT+YWGscAA3uhoCRnklhKf7/zx26oMttH2tX6a4T2v543fNuGfNPs+Kwa5k23NJuAH7WKN/Iw+pqN398veMyCFEOX1BuNKm4sgtlNH7MZjq+MhlVtc3H/Zo/dtuzxew81MhlMxw47Fo0WhWRYSoiw9oGUreeH8mhoiaWf13R56O/c9J8N1bcjR5eXtf1CTSfW1vNHRdEodQoyUkzdGsA3l99vO8T1Ao15ww7n3BzBGqVGqcp3Dfy+Zhy9ItyLiav4iCf7/60w5HNwfTk9fNYDqOv9nZu8Z5uaW9MwjiUCiXNnmbW7F8d0jbh5tZSI+3X5g4zOIlrCcq3F/xwXH0LJfhu1VvHv7spVe1fB5ubm3qxJ0IIIYQQQgghxMmny+lifEst7ar6ii597T9URyoOYzPYibbGBn3+xtNuJtwcSbOnmeVb3upwkrRWmVFZAHi8HtYdXNflPkVYfKMpq+oD66watb7RhO5mN94TGNta3+RqtzZvb1i3rY5ZE7TER+u5eKKF59a2DZXmDDeSGuMbxf3drtpO23Mfkz97mo5/grZmr5fxaTrW7Wk47ja6w5OrKnlyVSULx5gZnW4kyqnGYVbhsKhxmJSodSqUGiVJcTp+viCK0wabufD+Eyu/ciIcZl+ZFlfD8R97dzNoNWDQ9a9SJT3p/b0f8P7eD5iecibZ0QNxGJxYjXYsOgsmnQWdWodGpSY5LJV4RyKR1hj+vf6JkNvv6esnwNlpM/03/DYXbOqWNhMdyQBUuSooqA3tmxWt37rJ62ACzNMSJ6JT+64rX+z7/MQ6GYLeOP49oXDrBhypGai0gR/Z9sQ0TFFx1Bb23fVGCCGEEEIIIYToz7ocgLeO6iup6ZkJxHYW7SA7ZjAGrZF5mfN4Z+c7/ufOG3geQ+KGA7D58Ebe3P5WSG1GtYTpzZ5mdpV1bZT19JQzibD49jm3ZTLMVhnODLRq30jnZ79+khV7Vnap7f7kkRVlTBtpRadXMn+CPSAAX3S6HVQK3I0envgg+AjxYxVWNBIXraWwuJGpv9vfQ73ufW98U8Mb3wSOhj5/rJk5Yy0MSTGiN6gYnmHiiWuiuepffVOa4GCxrwSLxagiJVzd5ZIs6VEatFpf8F1a1bflXPrCR7kf81HuxwHL52XOY2r6dBKciaiVak5Pn8ba3M9CvnnV09dPgMxI3w0/V2Mdaw9+0S1threUVCnpYDT3sc5Kne4PtrcWbG53vYiWdpuam/ji8Jcn2MvO9cbx7wkl2zfxXVE+iRPOxDkgE63Z6H9OqQJHSroE4EIIIYQQQgghRDu6PAlm66i+/A5G9Z2Ilbveo9Ht+0r30Jhh/uVpjlRmD56PSqmiuLqQB7/8R8hthrVM3qZRaZiSfHro2xmcnD9yCRqVhvqmelZsazs5W1VDBc0e31DneEdiyO32R7klbjbuqQMgO1HHpEy9/7n0KA1DU30lNbbtd/H9wcZO2ztQ6PsZRoVpOC1D38na/VdKuLrTSS8BXvu6hksezOfGf+VRXNYyqehAc0jb9oTPfqjxFdtWKZg1ovPJTX9s1sjWSUxh9Q913d/BfsSitRBmcIa07js73+Hm5dez6ZCv9rdeo2d0wriQX6unr58A0S0lm8o7qb3dFU6T7/gUVIU20WlWVDbgC+HXHGh/ZLe5pR53b+mN499TXKVF7Hz3RYp2BI7qV+sMQbYQQgghhBBCCCEEdDEAPyt1OnqNL8zcUbi9RzpU6iqjuNo3ajbOkeBffvnYa7DorTS6G3n1+5dCrvsab4nFqrf5H08ZcEbIfbnhtJt99X+Bbw+sY2vJtjbPF9QWUdsyQWZMOyVbTibPflwObi8KtZJLznT4l197tgOtTgUeL6+tDa229frdLaGpUsFl0x0dr9xPnTHQwLt3JfP2b5NC3ubznfU8+6GvPrpKq+ScUb0b8LVat6eBujrfzZnZ422drB1o5ijfNnV1zXyxq75b+9afDAofyCPnPs4D8x7q0nZvb33T///Wa2JneuP6CRBm9l2ziqu7ZxLY0+InYND6RhzvDLHfMTZfqZHOQvjSWt97RaPSMDVl6gn0snO9dfx7WmNNVcAyhfL4JgsWQgghhBBCCCF+CroUgA8ITwOgvqk+aHmA7nKwfD8ATlM42WGZXJ5zBWmRGQCs2/cZq3JXhdzWaUmTUB0TDgyMHcqiQYs63GZk9HDum/MPBsUOBWBP8S7+2c6I8/KWOrIZUdmcFj8h5H71R6t3uNhxyAXAyDQjcXbfcRub5QtxD+Q3Bi3/Ecxb62vZkesLwScMMnP7/NBG2PYnw5L1KDVKwhwaLp5kCXm7hqajteD7sn729y0j+pNj9dy7LPSJSO+7JJKkOF/5ik37Tu3R39PSz8SoM6FpKdcRqpz4Uf7/55bs7WDNo3rj+nnsDb/W6+iJSgtPB8DtcfP+3g86Xf+3U+9kQIRvm85C+M353/vnTpiYPLnLfbtl4q08ed4zXDvm2k7X7a3PLyGEEEIIIYQQQvQvytqa0AJNAJO266UULhp6ERcNvahL23x76Gu8eFEpVczMms3UjOkoUHCgLJeHvnq4S22lOFP9//d4PSgVShYMv4D/O/03WLRtQ81UWxLXjbmOX075FUnOFAD2lezh3tV/abf9LXmb8OJFp9axJGcZ0abIkPo1Pm4sd037A89c8Bz3zrqvS/vUk97+shK8oDeouHGuk1vnOnHYfaXiP9oYOPKwI3e/WkRtrRuUCi48w8HPp4c+EvkvF4XzxV9T+fre1DblWPrKgtNC63ucXcWyltHzzY0e1mx19WS3OnT7s4X+ciwzR9m487ywTre587wwZoyyAlBS1sRtzxT2aB/7WrTNVy5Eo9KwZMjikLaZnzGXaZkzASisKgg5TO2N6+dpiRNRKVV4vB6+OfRVl18vmNYyJWqlmgVZ57a73tSUqTw471GGJ+SgVPjurR6q6HiS4s1FW6ip932bZ3DcMOZnzA2pT9OSp/LoOU8wPnUSdqPDX2+8I731+SWEEEIIIYQQQoj+RV1dFXqoWdBSmkSv0fPns+7mgc//Tqkr8Cvus9LOZnh8DumRmVj0Vuqb6nlh8wshv86aA59ziesKbAY7pw3w1eyua6jlv9/8J+Q2WkVYfZOe7S/dS3ltOcMTc1Cr1OQkjeGx2Ceprq/E4/Vi1Box6cz+4Ka+qZ7Pd3/K4+sf77D9ZzY+TVb0QNIiMoi2xfCX2ffxyc4PeX7Tc0HXX5B1LuNTJ5LoTPGPTC+o6puJEoP57+fVLJ0WRly0ltMGmahxeQAor2jk/uWdT355rPW5jby0qpwrZoWj1an4+YIIzhxp4bH3Svnwh8BgOCVczXWzHEwaYsFqaZmf1ePFom//iwrj03QolUdHWSsVvv87zGoWjQs+arvZ4w15JHurzGQjH96VyKtrKnlyVfAyMDfPcjB3nJXoSF8YtznXxZa8juulzxxqwGoMnIv2mF0iOUITdF8624+yWg//fq+E/1sShUqrZPGZYYxIM3DP68Ws29PQZt3xaTruOD+SjCRfLWGv28MT75VQVusJ2vaQOC3ZCToiHb6+K5UKfx835tazu6UG/LGyYjQMTdKjVft+nkadkkXjLGw/1NDpceop4S0ljgDmDFlAtDWG1za/wuHqwFrXo2NymD1wHhlRA9GqtTS6m/hg+3shv1ZPXD9TbUmYjqmjnRaRCUBDUz2xllhiLcFLMx2qygt5QuD8yqPHYlzqJL489AUFtUdHdp+VOp1JA04nPSobtbLtuVxeW8qYuDF8k/dNu+1/uvND5g1diEqpYtGoZaRHZfH41/8KKHMVbYpkauoZjEoaR7w90X/93Fu8m+c2PtvpfvTW55cQQgghhBBCCCH6F0X2+KnezlfzSbQm8IeZd2PR+0aI1jXUUFhdQFNzE0atCZPOjFFrajMaz93sZnPeRu5e/ecudezPZ91NVvQgALxeL29vfqPdULkjz1zwPGadha/3f8G9a+7h2rE/Z0LKRH9N2x9ranaTX3GYlzY8y/bwuKUAACAASURBVLf534X0Gtlhmdx4+m2Em31lJrx4qamvprq+mtrGGvRqA1aDFaPWhEal8W/n9rjZWbCNx9Y91CZQ6mu/PtfJ0hnhbZatXFfBLf89vj5eP8POhdMc2Kwt+97spbLWTUW1h9oGDzajCrtFicmgapP8NtR7ePPzcv70RmnQdj+7O4UIpyboc53ZsqeOC/5+uMN1bp7l4Mp5gaVDmhs9VNQ2U1btpskNZr0Sm0mJzXa0LwePNHD5g4fJq2hut/0nr41hwrDQS6sEs3VvHeff2/F+XDfdxsXTnW2Pf42b0io3AGFWNTazGlS+Y19Z1cTzH5XxyEfBg/4zBxn557WxKNTBb0yUVTQy8Vf72yybOdTA/VfFgzqwJExVtZtxt+3rcB96ystL3wgIbV1NLipqy6htqsXjacagMWLUGrEZHKhVvnWLqgp54/uX+GR/6OWYuvv6+cfpfyYrepD/pl1XVNSVc8Xrl4a0brQpkr/OuR+zzneu1jfVk195GIVCid3gwGa0o8D3cz1ScZiq+kr/tRt818MnPn+4w5Hyx17vwXdsKuurqG2oQafWYzfa29ygBKhtqGbt3jX8e/0TIe1Hb35+Ha/EoTmdrpMw8UxSp8xos+zgF5+Ru2p5O1scs97m0D7ThBBCCCGEEEKIU0ng0NMOHKw6xKsbXuC8EUuwGewYdWZSdGkB63m9XipdFRwsy2XFtndZX7Chyx3Lq8zzByI7CrYeV/g9ImoYJq1vdOTe4t0APPb1Izy/8VkWDbmAWGscJr0Zr8dDUU0B+4r38On+1SFPsNlqe+lOrnnzCm6bfDsj4segVWuw6K3+oOVYXq+X6voq9hXv5v0d7x3Xselpd79VxtzxNn9g2ljv4eH3Op7MriMPfVDB8u9quGtJJGOyTKBSYLNqsAUeHvBCRWUT3+yq45H3yoKOJG7V7A4+OrlTHi91DZ1vu36vi8saPZTXNLPi6wpmj7UT7tSg0ioJ0/pqg/9Yba2bL7bWcu+bJR2G3wC1DR7weuA4AszW/XA1dH7/6tGPKlm5sZY/LY1kZEbL8bdp2gT2re1t3F3L718s7vC41zY00+QGbTtXjzpX4LGtrvfS2OxBqw6crM9Vf5w/xxNk0VpwN7upa6jlf5tfZ0b2bKKs0Rg0Bgz2uKDbuBrr2HLke+5Z87cuv153Xz/Nestxhd/NnmaKqkP/1klBbRErf3iHuUMXotfo0Wv0pIQf7bcXLxV15azdu5pnNj7D3TP+2mb7KlclR4KMqD/Wbz/8NVePvoaJA07HoDVi1Jkx6gInkG32NFNSU8y2/C08u/G/XbpW9+bnlxBCCCGEEEIIIfqPLo0AP9bVY64l1hqLWW/B6/VS21BDhauc0tpSdhRv7/Ar750JMzj5y6x7cZrCqagr5/cf/DpoSYLO/Gzk5cwaPA93s5ufv3ll0K+7d7eR0cMZHptDlCUah8mJWqWmoamB+sY6SutK+ObQNyd0bE52WTEapg81MSBOR6xTg8Wgor6pmboGD/mlbj7+vpr3N/dd3ezO/Hy6jZQYHRF2FU6LGqVCQVVtM+U1bvLL3Dz1SUWnwXdfGp+mY9IgE2kxWqKcGhRAQVkTe/MbWLO1LqA0yk/Nguxzibcn4DCGYTX46r7XN7qobaxlV9EOXt/2ere8Tk9eP3vKiKhhzMichdMcjkqpoqymlLzKw2zO38iGgu+75TWywzKZkDyJKHMUdlMYapWKhsZ6ahtrKa4u5JO9H7Gn/MS/LdBfj//xjgDP/349u5a/0um2MgJcCCGEEEIIIcRP0XEH4D3pd1PvYljCSNweN89/+zTLd3b+1e5g7jrj9wyJH0FJTTHXvHlFN/dSCCGE6D6hBODOtIEMWXxZm2WNNXUU79rCoc8/oqE6eOkikABcCCGEEEIIIcRPU5dKoPSGRYPOZ0j8cAA2HPzmuMNvgHCLbwLMstqSbumbEEII0VNun/D3kNbb2HQ+jZqjJWK0ZiNxI8eSPHQI6dtux1LySNDtfrF5arf0UwghhBBCCCGEOJkcZ/HhnpHmSOXsQfNQKpQUVOYfV53dYzmMTgCOVHY8SaAQQghxsrBV/hB0eZPaSEnMBb3cGyGEEEIIIYQQon/rVwH45WOvwaK30uBu4KXvnj2htqYlT0Wv0QOwtXBrd3RPCCGE6HNJO87DWFcY/Elv30wqK4QQQgghhBBC9Fe9XgN85oAZnJY6Ca1a32a5SqkkKSwVBQrqGmrIr8rHi5eNB7/lla2vhtT2okHnMzw+B5VSjVFrIsYWC8De4t1t1jtYtp9Hvn64e3ZICCGE6Aah1ABvZXCEkz7rPMxR8WiMOgCa6hrY/tZzlOfuDLqN1AAXQgghhBBCCPFT1Os1wM/MmklyWGqH6xh1ZgZEpANQ11ADIQ7gnp51Ng5TWMDy1rZambTmgHWEEEKIk4WrvITNL/wLgMjBOWjNFg5/tbpvOyWEEEIIIYQQQvRDvR6Ab8n7nkZ3AwoUna5b11jH+ztCnwRzU94G4mwJHa7T2NzINwfWhdymEEII0Z8V/SAju4UQQgghhBBCiPb0egkUIYQQQgTqSgmU4yElUIQQQgghhBBC/BT1q0kwhRBCCCGEEEIIIYQQQojuIgG4EEIIIYQQQgghhBBCiFOSBOBCCCGEEEIIIYQQQgghTkkSgAshhBBCCCGEEEIIIYQ4JUkALoQQQgghhBBCCCGEEOKUJAG4EEIIIYQQQgghhBBCiFOSBOBCCCGEEEIIIYQQQgghTknqvu6AEEIIIeDg5u/6ugtCCCGEEEIIIcQpR0aACyGEEEIIIYQQQgghhDglSQAuhBBCCCGEEEIIIYQQ4pQkAbgQQgghhBBCCCGEEEKIU5IE4EIIIYQQQgghhBBCCCFOSRKACyGEEEIIIYQQQgghhDglSQAuhBBCCCGEEEIIIYQQ4pQkAbgQQgghhBBCCCGEEEKIU5IE4EIIIYQQQgghhBBCCCFOSRKACyGEEEIIIYQQQgghhDglSQAuhBBCCCGEEEIIIYQQ4pQkAbgQQgghhBBCCCGEEEKIU5IE4EIIIYQQQgghhBBCCCFOSRKACyGEEEIIIYQQQgghhDglqfu6A0IIIYToP+7+f3djNlvwer3cd989HDx0uK+7JESvkfNfCCGEEEKIU48E4Cex4UMHcfmVlxEXF4fVakWn19HY2EBDQwP19Y24XC5q62rZvX0n9973UF93VwghxEnAandgMpkA/P8K0Rf+3/+7m5joWLyKIE964b6//41t27d362vK+X/qS09LY8GChURERmEym9BpdDS5m2hsaKShqZHGehd1LhcHcnN57oXn+7q74hRx1a+GM3x8LErl0S9g11Q2cOvSj/qwV6Ijg3OcXH77KAxGbZvlH7+9m9ef3NlHvepbAwZaOWdpFuExZkwWLVqtGndTMw2NzTQ2uGl0NeOqa+TA7gpe+lf3fj4LIcSJkgD8JHXTDdcwZ95cDEZDm+V6vQG93oDNdnRZVmbmTyIAv/mm6zh06BCvv/FuX3dFCCFEL7pw8RIKC/P5ZNXqvu6K6EZGkwmFSkmw/BtAp9W288xPi5z/oVtywWImT52KXt/292etSodWp8N8zLKUlAESgAsALrg6i4RUO1a7DpNFi9cD1ZX1VJTWc2B3Of97bg/h0Tqmn5NK7s4KvlqVH9CGyaxBrW5bffTHj0X/ojOoMRi1KH/0Y9JqVB1uN3pyFNnDw1Eq2/v0at+ebWWs/fBIl7frDYuuyGTizBT0hrYRklalQqtXAUc/k5PSnRKA/wTNvXAAYZGGzlcMwYE9laxafqhb2uqvFl2VRdHhGlavkG8b9hYJwE9C5y2cy/yF56DVaPF6POzYsZN9+/ZRXFSMRqPFbDYRFubEZrdhtlgoLS3t6y73uMsuvZDzFp1HWVmZBOBCCPETMnfOHKbPPJuqigoJAE8x/3zgfrIyM/EqjoYIBr2e+ecu7MNe9S9y/odu2tQpnDFtOmqtBo/Hw/7cfRw+fIiKsjLUag16owG7zY7ZasFsNFFRUdHXXRZ97Mz5iUydm0pEjDngOatDR1yyjUE5UQwfH8uRQ1WMmhhP9ojqoAH4A7/9lqlzElBrlKQPDmf4uJje2AVxAr5bW4TX8zVhUUYA5i8d2BL0duzcywYSHnl83yDKHB7ZLwPwKbPimTJnAGqNEo8HDuwuI29/JRWlLlQaFQajBptDj9mmw2TWUFnm6usui142alIkcy7MQqHo+o2fYMJjSk7pAHzWBamcOT+NqvJ6CcB7kQTgJ6F58+ei1WhpamriqSef4tnnXunrLvU5p9MJgF6n6+OeCCHEya2hvh6NWoMXDy5XfV93p1M2q+8rTxqdjAY+1ew/cID9Bw60WZaZkcH8c3vuNeX8P3WdPnUaaq2G5iY3b731Gu+tWNnXXRL92IyFycxfNgi12hfmVJU3UHikhspyF3jB6tATE2/BYtcRm2QlNskKgFbX/p/XrWFORLSUVzpZbPiy2P//2Yuz0NJ5AH54XxVajZof54AKhQKzzXetrq5qBI+3zfMej5fDeytPvNM9YNKsZNQaJW63h3ee28b7r+/v6y6Jfmb/7kqK82v8JYPMNi0KhYJ6l5umhuaQ2zGYtf7r7qnMavflVhpt59cU0X0kAD8JxcbGAfDd+u8k/BZCCNGtbrnl5r7ughB9Rs7/U1dEZCQAW7dukfBbdChzqJ2ZizJQqxW4mzx8t/Yw//n75oD1TBYVF1w5kFGnJ0g5E+H36J++C7o8fbCN2/42CYBn/7GBTV+X9Ga3TkhEtO9bENs3Fkr4LYIqKWjgt1d+5n98/8vTMVt0fP3pQV54dFvI7dz16GTiWm4oCtHd5JP6JKTX++4W7di+o497IoQQQgghRP+n1fp+f96fu6+PeyL6u0kzkjCZtXi9XtZ+uD9o+A1QW93MU/dvYc2KXLyeXu6kEL2o9ZsNB3aX93FPhBDi+EkAfhJz1db1dReEEEIIIYQ4adTV9//SNqJvxaf4SgsV5tXwYggjF19+fDtF+dU93S0h+pyrLvRSFkII0d9ICZR+btoZkzn99ImoNUd/VIqWqajHT5zAwCED2912755c/vPUcyG9zuic4UyZMomUAalERUdhtpjR6/S43U3U1NRSVVXJ52u+4Iknnjmh/bni8mUMGTaY8PAIHA47ZpOZOlcdVVWVlJeV88MPW3nooSfIzEhlyZJFbNn8A2+8tTygncyMVM47fwEmk29Skuho30QyWp2Ou+++s9N+7Nq+i2eee7lLfY+Pi+GKKy4hLj6OsLBwbA4bCoWCivJKSkuKyTucx5NP/pfDeYET37TnZ5ddRFr6gIDln3y8mk8+XeN/nJycwMVLl5CZnYnVaqWxoYG8I0d49unn+W5j4KiU5OQELll2ITp9YE30bVu28fxLrwftzyXLlpCZlR6wvLq6hr/85f6Q90sIcXI4e+YMUlLTgk5Y4/V6eOd//+Pwka5NxjR2zGhGjMhBpfZ9bjU01PPkk08CcP7C8xiQno7TGY7d5ruG1tfXU1xcxIYN61n+3nudtp+YEM/0M89Cb/Rd/8PDwgHQanT8/Oe/6HT7A7n7WL5iRZf2adrUKQwbPhKHMwyb1YrRZKaxsYGqqioqKisoyMvjmWf/26U2582dS0JiUsDyb75ax7ffHf36dEx0NLNnzyElJQWj2UxTYxPFRYW8887b7Ny1K2D7nj7+P5adlcmonNHEJSQQFhaB0WRAp9XT3Oymrq6OmpoaNm74ljff+l+X2+5pcv6H5mQ6/1uNzslh5KhRqNUa/zJly+/Pw0eMJC0t8HedVocPHeTtd94JaT966/w/Z/580tMzcDgcWK02DAYjroZ6aqqrqaqsZO+e3bzy2qskJsQzY+Ysdu/eyerVn3XeMD3z8z3W6JwcJp8+leiYGAwGI3qdDo/Hg8tVR21dLflH8njrzTcZPHgwcQkJvPPO2xQX921pCJPFV8O2vDj0wUYH91USFWfB03x8Q8EvvHYgcSk2nJEGbHY97iYPFWUuyorq+GF9IR+/fbDLbWYOtTNyQoy/XaNRi1avxuP2UFfbRE11A5vWHeHt5/d2qd3Zi1OJT7UFLF+/Jo/v1hb5H0fFG5h1fhpJ6Q6MFi3uxmaK82tY/vIudv8QWq3rKbPiGTomGnuE77gYzFqaGtxUVzZSUeai4FAVzz8cenmFH5t+bhKjJ8dhDzdiNGlQqpQ0utxUV9Wzd1spK1/fS+Hh/jGh4+jJUQwfF42ypdxOY72bp+/fAsC5l6YzIDsMR4QBu12PQqnA5XJTWlDDxnX5rHw1N+TXyZkYyYjxMag0R8dKtlw+GTo2mtRsZ7vb5uVWsfyl0M+n8Ggd8y7KJDLGjC1Mj8WmQwFUVTVQWVJPUX4N77ywk5KChpDb7O7zc+qcBNIHh6FQtswHUFbPOy/s4uIbhpKQYsMRbsRV10T+oWrWfnCArz71ZQHnLktj4MgoouIsqNRKqivr2bA2j1ef3BnyvvTE+d+b79/j4m2pjf+jGvk/1lPXtx+be+EA0gY6sYcZsdp16E0a6l1N1FY1UVVez74dpbz+1C4SUk1MP3cAe7aVsmZlXkA7Cakmzpibit7k+/0wPNL3e5xGp+bqX4/otB8Hd1ew8rXQ38dwcry/jl1/9qI0NPrAiHrf9jI+eutAwHKAsxelkJhmD1heV93Ecw/9ELBcAvB+7uJlF5GeEfyX9OEjhne47ZgxYzsNwM9bOJfzFi0kPi7eH6wfS61Wo9cbCA8PJyU1lcmnT+LuP/+Vbdt3h74TwMDsdG7+5Q1kDxqIgrZ/aFosFiwWC3Fx8QweMoTxE8aTdziPCadNIGtgVtAA/MILF3PmWWcG7e/pU6Z02p/hI0Z0KQC/eOkiFi1e5J9s81hRUZFERUUycNAgRo0ezSsvv8Jzz78aWruXLPV/JfdYFWUV/gD8+uuvYs68OZhNbWegj4mNZdDAQTz91DO88OJrbZ5bvPg8zpo5I+hrDhk6tN0AfNllF6PX6YM+d/DAoYDXEUKc3ObOOxdDS5AWzObNm7ocAM6Zew7xCQn+x+4mN5+vWcPFF19C3DHLW5m1GsxWC0kpKYSHhXcatJx99mzGTTgtYLlKrWLU6DGd9i87KzvkANDpsHPJJZcxePBQlOq2k9QY1EYMRiNR0dFkZmYxcPBQ3nnnTdau/SKktufMPQeNVhOwvLqywh8AXnD+IiZPnYrR2HbCtIjISFLT0njnf2+y8v0PAtrtyePfatrUKZx51tlERkX5g8VjqdQqtDoddoeD+Ph4cnJG8+9/PxEwqWVfkvO/Yyfj+d9q9tz5JCUnB30uKyu7w74NHjKk0wC8t87/5KQkli5dRmpa4I0ak9qEyWQiKjqa9MxMho0YQVFBAcNG5pCaOqDTALwnf76tbr/tdrKyBqJQtT1GKnwTt1rtdmJi4xg4aAharQ6lSkldTS0vvdK1QSrdzVXXhM2px2gN/B29PWtXHsBi0bJnR2mXXmvc1BjmXZxFeFTb81ytURJttBAdbyFjSAQWh463ngnt768ps+KZNj+NiFgzQU5PUKvQ6lXYw/TEJ9kZMSGOp+/fwIE9NSG1P+uCLDTawIaryxv8Ach5P8tg4owUjOa27/PwaBMpWWEsf3E7H77Z/vvBEa5j6S8GM3BkNCpV23NfrdZgMGmIjDWRMTic7JFRvPfiDr78OPRBSNnDHCy+ZigxCVZQtA3a1BYNRouGqDgLw8bH8unbe3n3xRML0brD2RdkEJ98NHhyN3lY++FBLrx2KHHJgYGURaPFYnWSmOYkLNIQclA6c1EGSQMCAyWAzCERHW47aGRUyAH4jIXJTD83Dasj8G/PsAgjYRFGUrOdDBwRxUdv7eaDN/aH1G53n5+zF2e26WN1VSODciKJjLX4l1lsOiw2HdFxZvL2V3HWggGMPj2xzfvPGWFk2jlp6I1qnn1wa4f70JPnf2+8f0MxaISTI4dqKS9pG74ezq3EEW5k/96KoNv19PWtVVKamSXXDCUlyxH4+WvWYjJriYw1kTYojCGjYyjOr2bo2FhSMpxBA/AZCwYwZmpiYHfVCnJOi+u0P1lDIroUgJ8s769WZ52TwrhpgQMjANIHhrUbgM9enIVWF3wi0cK86oDXkQC8n9v2w1ZsdlubN11EhO+Dp6KigqampqDbeb1eDh7sfKTA2HFjSUjwvRG9Hg9FRcXk5+eTl5dHeVk5FouF8PBwBg0ehN1hJyUlhf/7ze1cvPTKkPfh0osXs3jpEiwW34dEaWkphQWFFBUWUlRUhNVmJSwsjPSMDOx2O0lJSSQl+U5+XTth7JYtWxg0eCBqje9NpdfrsVgsePFS0smoEa/Xy769odd/vO/vdzNm3Bj/Hzj5R45QUFDIkZY/imNjY4mOjiImNhaH08FV11zF8BHDueWWX3fa9o7tO4mOifHPEh4eEe6/QWCzWfjrX//EkGFD/MsKCwo5cGA/NruDjMx0DEYDl/3s0oBgetOmLeSMyiE8PMwfsBcXF+P1etm1o/27zju37yQmNhaF4uh55qpzUVxczK6dXbvpIYTo//bs3kVcfAI/HgDrcIYdd5v79uzCaDSi1WgxWy2oNWquu+4XWO2+P6aqK6soKi4kP/8IHrebyKgY0tIzUGvUTJoyFYUCnv5v+yHgnt07GZCWjrolsNHq9JhMJvB6KS8v67BvXq9vdGcoJkwYz6JFS7C19Nvd5ObQwQOUlZZSXl6GwWQkzBlObGwcVruNiMgILrnkcrKysv0jfjuyP3cfYRHh/lvCdofT/1lvNpu44fqbSMvI8C8rLSkh/0geZouVpORk9HoD885ZEBAA9vTxbzVkyDCiY3zfvvJ4PJSXlVFcUkxRYQHVFZUYzCYcdgdpaRlYbFZi4xO4/Iqr+N3vfhPS8e8Ncv6372Q9/1vt27MLi8XS5mfb+nOtqaqiyd3e789QkN/5TY/eOP/nzJrFzNlzfT9foKKinLKSUkpKSygvLcNkMWG3OUhOTsZstRITG0dMrO+PaK1W22HbPf3zBbjt1tvIHjTYd4zczRw8eIDCwgKqKn0jv2x2OzGxscTFJaA3GPzbGU3t35TqLeXFdUTHW4iJtzBxRixrP+j8nNi+qZztm77p0uvojGoWXzPUHxKUFNWyb2sppSUuzGYNkfEWBmSHodYoOWtBBjqdmpcf395pu4NHRRIV7xs44/FAeUkdJYW1FB+pobqiAYNZiz3MwIBsJxabjtgkK5fcPII//vzzkPq9f3cZYZEm//vLHqb3v1dNFhXX/W40aQPDjr5/i+ooOFSF2aojMc2O3qBmzoXZ7QZo486IYeFlg7A5fX8Hups8HM6toKzYRXmJC6NZgyPCSGyCFatDR0SUiaW/GEHm0HD/iOiOTD47jgWXDMZo0QBe6mqaKMyrpqSglrqaJiJiTIRFGYmMNWMya5m9JJuwSEOn7fa03O2lGE0aNDo1FqsWtUbJ1b8a7Q+4qisbKM6voeBQNc1uDxFxFtJazp+JM1JRAM+FEILnbi/DYtW2yR8c4b79r6lspKkpeBkUr9dL4eHQSgFdf1cOg3JiULbkViUFtZQU1VGS7wspw2PMhEcaCY82YXXoOPeSwWQMCeOh3wefYPRY3X1+5u4sJ2GAHYNRjcGkwWLVYrH6rrGFedUc3FOB2aolc1gUVoeeW+6eiMGsRqHwjULdv7uMqvJ6ho6NwWjWMmZKIhu+yOeH74J/Zvf0+d/T799QzFiYzIJLB1NwuJq7rm17s9Y350LweReg569vAGefn8JZ56VjMvt+zhVl9ZQX1VLS8jMwmzXYnAaS0hyYbVpiEi3EJPqyLo0ueJXpPdvKSM0OQ9XyDQ6tXuVr36ugvLTjbxt5vV7y9oc+6v5ken+12r21nKzhNdjDjP6AvbzEhdfr5cDu4DdDfP0pJzzK15/W61S9y01FiYsDewKPmQTg/dw9f38Q/v5gm2Vr136MQqnkpedebHckb6hWrHgftUpNYVEhH33wSdByGq0eeujvjMwZSWrqAG684Wr++eDjnbafmZHKogsv8IXTHg9ff/UNt9zafjD8qztuZsasGWg1Hf/i/vob7/L6G+/6H9/yy1+w4LwFuGrrOGf+BZ32K1S333Yj4yaMA3xB8Acr3+fe+x4Kvu6tN3DWzBkYjAbGjR/H7bfdyD33/rPD9q+99qY2j1d+8D+sFisanZYnnnjYP4qspraGd956h0cePfpHx623XM/sebNpaAisZbly5cesXPkxf/7T75g6bSpevLz84iu8/MqbHfbnuutuBuCmG67h/MWLAHj77bd56KEnOtxOCHFyuv+B4KWNnn7m2eNu0xfe/Ze5c+aw4DzfdcRqt+P1etmxbSuPPvYINTW1bbYZM2oUSy++FIvNytgJp/HJp59w8NDhoO1/smo1n6xa7X+89MKLmHbWDFz1Ln75y5uPu9/HMptNLFi4CFtLv/fv28eK995l/YYNQde96KKljBiRg06vZ/z4iezft4+PP/20w9e4+y//r83jhx9+DJPZhEaj5Te/udMfrtXV1bL6k0947Y2jn/cXX3QRk08/g6aGxoB2e/r4t1q79nOUKhXlZaV8uW5dh+Uo7rj9DrIGDiI+IYHFixbz8qt9O7qzlZz/wZ3M53+rZ59/Hp5/vs2y/zz1DEqlkuXvvcsHHwQPzkPV0+d/YkI8M8+ejclkwuPx8MPmTTzwjwfaXf/SZZdw2sTJqIOMqv+x3vj5Tp40kYGDhwBQVFjIyy8+z8ZNm4KuO2bUKC5YchHOsOO/8dTdtnxbSPqQSLQ6FQt/Nhi709Clsg6hUqkUGM0aPM3w7ZqDQSfbHD05iguvHYbJqmX8tEQ+fntfp19X//LjQyhVSsqL6/hqdV6H5QpuuXsMmcMiiU+2cd4VmbweQnmGe2//qs3jf7w8A6NFg0ar4lf3TSQqzhcE1dU08dnKfW1Gri+5JptJWUXagQAAIABJREFUM1NoaggeoposKuYvy8bm1LcEH+W8/9puNnxZHHTdJdcMZtjYGHQGNWOmJLJ/VwWrlh9qt+9R8QbmXZTtC7+9Cg7sKePlJ7awd1tVwLqLrsxk4owU9AY1485I9odJfcUXXm9j1gWpnLPMVwbV6vAdp52binn8r99RW932uI6aFMmSa4dhsekYMzWR1SsOcGhfbZDWj3rxsW28+FjboPxf785BqYSVr+1sdyRmqC68biBDxviu8fUuN+s+PsBL/wp+Y+fCawcybloieoOaIaNjuPC6gZ3W5e/u8/ORP/lCwStuHXp0BK9XwfdfH+HRPx0NDH/9wASSM5wtN1agOL+GJ/663j/yeN5Ftcy5cCBanYoR46ODBuA9ff73xPE5HtHxFhRKsNpD/5ZNq56+viWkmjhrgS/89nhg6/p8HvpD+8Hw0l8MZMKZyag1HU+vuHrFYVavOPq73eKrszlj3gBcdY3cccknnfYrVCfb+6vVV6vy+WpVPlfdMZxRk+Pxer189ObuTst//f0OX38WXZHJmef6KmesWbGP158K/nuZBOA/catWrWXVqrUhrXv99bfy7vLXcTqdpGdkhLTNTTffgM1mo7m5mef++xz/frLjPyr/+rcHKC7+/+zdd3xT1fvA8U+SZjSjew/KKnvvpbKRjchyIQj6VZzg/Pp14Z4/caKCCgoKqKCAIuJgKELZe48y29K90jZN8vsjbaUmbZPSAeV5v16+pMm5557cc+5t+txzn3OBiZMm4uVVu8Pz2mu6MXCwI41Iamoqr7z0Ghv/3lJm+dfffJc///qbJ//3BP4B/gwcPIi4uC2sXbfR430PGTqk5N8nTpzgvXfeZ3PcjlJl3nzrPebMnUdGRtl32j/6aC6du3XGaDAybPjQCgPgxa7t0xuApKQkCX4LIarE9i1beP/D912+F7d1K4FBgYwddxNarY4+vfsy/8vKByEv1X/uuofAomDM7p07mPXOrDLLZmfn8PHHH9OvT2/GTbgVjVbD9UOHVxggKkuv63qX/PvcmdMsXLiA/QdKf3H9cuFClv3wvVMgtTxVffy3bt/uMmDmymuvv8Y7s97Fx8+vzLQUdZ2Mf/dU1/ivatU9/m++dSIGkyOf9Mrly1j2ww/llp/3xXzS0lIZPnI0Kq/yo3Q10b+xjR1/J9isNmZ/+H65qV/itm7FZrNxz30PuEwnUxt+/eEUUQ186NG/AQajhhG3NqfHwHqcO5nJmeMZ7N6SxPGDzgHTyrDZYN1Px8oMUGxZn0hQ2BFumNgKb4OavsPqV5hDePvGCy4DZq689WQcby7oj4+/jnplpL1wV8+B/zy+fi4+k8Uf7+HArrRSZb7+6ADLFx52CtQWm/poBwKDHU8B7NmSwPvlBJ5ysqzMfWMXvYekMGZqazRaFQPHxJYbALz1vjYlM6a3rD/FnNdd35gBWDLnEPu3X2DyI51KZvxejnZsPMdHL+9w+d7WDUkEBB/mxsmt0eq8uPb6GBa6sbBrdWnbNYju/RxB5My0POa9vb3MmdDgCMbvjktg0vSO+Phr6d6vHvu3X2DnJvfG98WqYnwWO7I/uVTwG2Dv9kTqN3GkS83JLmDerB2l0m4sX3ic3sMbYTRpCQornfKoWHWP//JU5fG5mG+gN/1GlE794eNf+fOpuq9v4//TGoOPBqvVzqrFB1i+sPzMAQve3096ch5DbmqOl5fzmjI1qS6cX0vnH6BFh1D0RjU9B9V3e/2L9r0cT8ClXsgtM/gNcHl8yxBXjITzCQD4+vlUWPaWm8fSqo3j0cc9u/dUGPwu9ulnCzhxwrME/9Vh6p134K3TYbVa+Xrh1+UGv4tt/HsLixZ+jdVqxVunY8qdkyu9fzt2tm7dyq23THEKfhcrL/gNcObsebZudrQ7pkEM48fdUOF+7502ldDQEADWr11fQWkhhKjYvj27ywz+FVv182pyigJatTkTsFOHDrRo5fjddfL48XKDQxf77Y+1rPn5J2w2G4GBgdz9n7sr3wi7nf179/C/p/7nFPwr5knw73I4/snJjvRkRpOpgpJ1z+Vw/N1VF8f/5cCT8T/4+kE0iXUEkA8fOVRh8LvYDytWcPZs+YGPmurfjHTH48oKBSXfKcuzdft2LiQlYbfZSExMdKtN1W3erL389M0B0lMcT1oGhRho0yWcIROa8fib1zBr0SBmzr6OaU93pO9w5/z+7rDbYOOaE2UGv4utWnKC3BzHEw+Boa4DZ5ciJdFxPhmrIshrV3BgRyLPTVvvFPwoVlbwo0OPYJq3DwUg/khaucG/i6396Qy/fX8Em82R2/bOx9q6LBfT2EijZo7ra8LprHKD38X2bktl3cqj2Cu3tmm12789sczgd7FflsaTne0YPwHBtZvKZcRtzdDqvLBa7az+9ki5wblie7elsvq7w1itdrQ6L0bc1qzyDbiE8VnyfnYBc193vgG6/Mtj2Io2/fvXeJczkzNSHU9v/HtdBKj+8e+WKjg+/9auWzjj/9Om1H+tO4dXvo0e8uT6NnB0DLEtHIuLH92fXGHwu9jKRcc5H1+NC4O6qS6cX8kJ+ezb4fgeEBHt43TzxJUbJsWW3DjavrH8lGUSABcesVoL3S7bpm1rlAol5lwzcz7+1KP9xG3a7PgSnJDgaROrTGSU4y7S1i1b+err79zebsHX37Jt61bAkR+8MqxWK2t+/oUHH3isUttfbPbsuWTnZKNUKBk+YmiF5fv06wtAcvIF3p714SXvXwhxdSu0FPLmW2+6VTY723FTT1mLzxm3bt0apVKJ3Wbjpx9XVLzBRb5dtpTEBMciRFEuFjx0h81qY+Nff/LGm29Uavt/u1yOf6HN/e8PdcnlcvzdVdfG/+XCk/EfG9sUhVJJXp6Zpd96tvj4nl27sNlsJKe4nr1VU/377bKl5JnNKJRKJt4+hZvGT8BoLD9w+9Zbr/PeO2+z8scfPWpXdfp+/lEem/gr38zdw4EdiVw4n40l34pCoUBvUhNez0S7buFMuLstL83tTe+hUR7Vb86xVLgYXrHcogCml7rqZxgWXlo2gxJWq51Nv5/k7acqnjTkSssOwSiVjhsDP3/r2dpDy744WpJ/OsLFgpAAA25ohJdaSaHFxvKFFedSL7Z84XGOHyp/janaUGixMetp9451TqYj8Kp0EXitSaHhjpuAB7YnsuZ791OprFkWz8GdjqBYSJixUvu+1PFZzJJvc1q4sZgdx4KqmWnlpylypbrHf0Wq6viUVffF/9UkT65vjVsEolA6Uod8/4X71wiAPdsSsNkgJcnsYQurTl04vwCWzTtAbrYFhRJ6DXK9MObFOl/r+N2blmxmyScHyy0rKVAEAL16dmX0jaMIDAzAYDRhMOrRaDRYLVYsFgtmcy6p6elEhrt/ty4kxDHj48yZM+zc7d6Xu2Ifzv6M5ctXceas+6t5V6XBg/uj0znukK+rxCzoP9f/RZeuXdHpvBk8uD+rVv3q0fZrf1/LzOdf83i/rhTPAu/dtw8xDeozYewoFn3zvcuyd/9nMuHhYQBsWOdeahwhhKgqxX841KbwCMeXqFyzmcioKCKjPAtoZKRnEB4RiclY8ZNSrmyJ28ScuXMqte2lqszxb9u6Nf36D8DXzx+9Xo+3tx61Wo3VWkihpZC8/DwyMzMICa54FujVTsZ/7Y7/yqiO8R9QtFhnYkIiR44e9ag93y79jnUb1nGhjAXha7J/t26No3v3XugNegYOHkLvvv3IzMwiKzODzMwMMtLTOH36dEk6lQsXkstsd21bsyy+VN7j3kOiqN/Ej7AoH0KjHQslBocbGXdnG/RGDT8tdm/WoCfsds+vD607BdJnWAN8AnXoDWr0eg1eGiXWQhuFhTbyzYVkpucRXMmAx79t//MMn7mxCF9Zwuo5xlVubgER9UxE3OzZE0MZ6XmE1zNh8nGdVzgkomhB2VQzWzckeVT38QOpNGoe5NE2l5Xa//VCtz7haHSOG7wVzdJ0Zcff52nZMQyNTkW3PuFs+sOzOMGljs/qVt3jvyLVdXzW/XjcKe3O7Q+2LpUyozKq4/pW/IRE4rlsl+sClOf7+Uf5c/XpCtdoqC516fwqngXe+ZooIur50nd4NL+vcP2E26jbGhNU9GTUzr8r/twSAL/Kde/akdtuv5UWLVugVrtYOKfo+unn71ip3RMBgY4cWBeSPPuCUay2gt8AbVs7Hg/NL8jnh+WrPN7+u2Urue+h+9CoNbRt3crjAHh2lnsraLtr9uy5dOrqyAU+dOTQMgPg/Qb0AyAlJYU3y1jsUwgh6jI/f8fvLoPBwMgbbqx0PQZj5QIKuTnZFRe6DLRq2YJhw0fSqFEsXmpXXycdj5qa8CE4RILfVwoZ/+6pzvHv6+fIU5qWmlKptpUXRK7J/v300085c+oU1w8Zhp+/PxqtlqBgLUHBpYOI4yfcQtKFRP7e+NdlNfu7PGt/OgNFi5kZTCruerwDzdqF4KVWMujGWP7+7WyZM0RrQsv2AQye0ISGTQNcL8ymdQRJTL5l5yKujJwsyyVt7xfkCD4ZjBqG39K80vXoTa5THRiKXs9I9XyG5oGdyQy4oSkoLoNI8hWqUQvH9ceSb+XPXzwP0K1fdZYJ/2mLl1pJoxYBHgfoLnV8VrfqHv8VqcnjYy/KKVSZzELVeX3z8Xf0QfqFys3irq3gN9S982vZvAO0bO/IBd7r+vplBsA7X+e4kZ+emldhOjGQAPhVrWP7Njz59BMlM01sdhtnTp/lwoUk0lPTSU1NRaVS4a33JjAgkJDQEMLCQ0tmRlfEoC+6y55R+/mQPOXj73h0KM9c+UdYrBYrqEHnXbu51qB4FvhWevftTf0GDRg3dgRLvlleqszUKRMJj3DM8N+44a9aaKUQQtS+i1N9FVoqn7bDZrPStEkTDh0ueyGWK1XTJk2YeufdJYG64pRlaWmpZGZmkpmRgVKpRKvT4uvrR2BQEEFBwWi0lZuVJGqOjP+KVff413k7Fuir6skQUPP9u3rNGlavWUOPHt1p1qQZ/gGBGE0mTD4+mIwmNFoNXho1EZFR3DhmHC1bt+G1V1+pdLtqQ06Wlbef2sLEB1rSa1ADvA1qRtzShPnv1M5M09hWvkya0QHfAMc4stsg8VwW6clmsjLyyUjLQ6lUovNW4eOvIyBYT1CooWTmYG2yFf4TDiu0VD7pts1qJ7aVr1MOZrXGEfowZ3s+9vduS5Xg9yUy+ToCs3n5lc+5U1how0vtGL91TXWP/8vJ8UNpdOgZReJpz37PVff1Tad3XCOyMws8+0CXgbp2fiUn5LN/RyKdrokisp4vfYZFOy3wOvzmRgSHmQA7uza5F7CXAPhVbMaj00uC38eOHWPl8hVOQdF/++ijWbRu08at+rNzsvHWexMUVHuLOVXWuTNnATAaTURFhns8G71+/Wh0OscfOmlpFS8+UBNmz55Dp66dMBqMDB853KmvBwzshwIFaalpvPq6e4siCSFEXZOelkpYeDgXki7w2GMP13ZzLku33z6pJPh35tQp1q39vSSNQVn+++STNGlyCQvriBoh479i1T3+zbm56HTe+Pn7X3Jb/622+nfjxr/ZuPFvp9d79exBt+49adiwEd56Pc2aNefBBx7knXffqbG2/VtolDcdeoSxftUpjxZ7++LdfXS6Jhqd3ouQyKpfqNJdt97briQ4dOZEBht+PukUNPi3R1/vTmzL2v97LT3ZTGikiQuJOfzvjj+qvP68XAsE6jAVHR9P9BpYuXWdxD+Szjue8NEb1ASFaT2eLRsa5Y1G6whfZaTX3kzb6lLd4/9y8ufqc/y52vNZytV9fTPnWNB5e+EXeOVN2KiL59fSeQdoUTQL/JrB9Z36ukvvKFDYyUzLZ+EH7qVclkUwr1LDhw6kXoxjAZs9u3cz8bY7Kwx+eyo1xRH4Db4C837+vTEOO3ZUKhX9+17n8fb9+l6HQqnEjp2Nf22uhhZ6rngWOFAyC7zY7RNvIjLa8fjIxo0y+1sIcfU6X7TIW2BQIM2bNa3l1lx+evXsQVi4IxBw+PBBnn7mqQqDf+LKIeO/fDUx/jPSHbP2/AMCqrReqLn+DQ4OqnDRS4A//9rIm2++wfvvvUNKiiPlS8tWbdzatrpMfKAtN9zekokPtPV425QLuQB4G1yklawBPfqHExblyBt8ZF8Kz9+3ocLg0OUk4WwOAIHBBpq28avy+otndfr6ex4Ab9Ck6ttztdmzJQm73Y5KpaDzNZ7fUOjcK9yxSKTdzp64xGpoYe2q7vF/pauJ61tmWh4AfkH6Kq23JtTF86t4FjhQMgu82OBxDQiNcOTN3x3n/s0UCYBfpbp174ZSoaTAUsBzz7xQLftITCwarFER9Ot7bbXso7ps27Gb7CzHXbT+1w/wePu+/foCkJ2VzZZtO6u0bZdi9uw5ZOdko1QoGTZieMnr1w8ehAIF6enpvPzy/9ViC4UQonYdPnwI7HaUSiXXXz+ktptz2WnTth0KpZLCAgsfz/6wtpsjqpiM//LVxPgvDgSHhITRuWPHKq27Jvq3datWvPzy6zz//Itub7P/wAF+WeXI/63WqOnWrVul99+wzxCaDK58fnN9UfA6qpGvx9t66x3bFhZU/hH0S9GqUygKpSN9wtzXt9dKGy7FkX0pYFegVMLA0Y2qvP6jBxz58X39tYy6vbFH2zbvGFrl7bnaHNmbQW6OI09w1z7RFZR21unaokV8cywc2p1epW27HFT3+L/S1cT1rfgmZki4kY69rqxJnHX1/Fo67wC52RYUSrjm+volr3fvWw8UdrIzCvjiXfdmf4MEwK9aKi9HXh9zrpmEJPcW2Zl2z1RimzZxex9b47ZiLbSi0WiZeucdHrdxxkPT+GH5El57dWaFZW02R54staZyiz64snf3XgAaNGjA008/6vZ2zzz9OPUb1Adg/7795ZataRfPAm/QsAFjx4zglpvHEl30NMCmv50fTxVCiMtZyfXfq2qu/5s2bebE8eMAtGrTlrE3jqmSeusKldLx1TE/P4/UNPe+II+9cQz1YxpWZ7OuWjL+a1ZNjP+9+3ZjK7Si1qi5oRLH/5abbubtt9/h/vvud3qvJvq3UaNGeKm98A8IpF+f3m5vV2D5J+eqTuv5DN2Ok+5n7Jzv6XnPI3SdfC9j5/xApzse9LieYoFBBq69PtLt8v1H1it5NP/08cxK7/dSqFRF49Nc6PYinDdMiiWm8eUx2zRubQInjxQ9CdAxnBsmxVZp/Us/P0J2Vj4KhYLegxsR09i9xXrvfrI9QSG191RCXXJsv6N/I2J8mPRQK7e3mzyjNRExjtmeJw5cHulFq1p1j/8rXU1c3/ZvT8JqtaPWKBl5q+cLkY6/qxmvf9Gfe/7XocKyNrtjTQG1purybdfF86vULPAYX3oPjWLg6BhCoxzXb09mf4MEwK9a8SfjAfAxmRg7ZkS5ZX19Tbz8yrPcdMsEj76QfrdsJXGb4wCoF1OPt99+BV9fU4Xb+fqamDXrVUaPu5GgoCCioiu+g3XwwEEA1Go1906b6lb7hg8dyH//O4PGjWJcvv/Ci6+SmJgEOGZ0z3hoWoV1znhoGn369wEgKSmJmTNfdqstNWn27DnkZOegVCgZPmIYQ4YORoGCjIwM3n33o9punhBCeOT4SUcwx0vt5XYwp1fPHkyaNImoCNePCH618AvHdVKppN/AgQwb4v5MyUmTJvH2rHd4790PaNHc8y/Pl7vzZx1fNL0NBvr27VNuWaPRwH3T7mPwkGFotFV3g1r8Q8Z/zaqJ8b927Tr27NkFQHhEJA/PeNitlCBGo4GHZzxCv4GD8PP3Jyw83GW5muzfXtf0dqveAH8/Bg1ytMNSYGH37l1ut6lYo2sHovP1KflZ52uiYS/Pn+IsplTB6EmtaNctuMKyTdv4MeSmpqhUCgoL7Wz87VSl93spEk47Au/eRg29h0aVW9ZgUnH3k+0ZNLopGm3tL3hWbNHHe8nNsqBUQt/hjRg8toHb2952fyte/7I/b309kOZtXefQ37nRcQ7rTWomz+hAoxY+LssVG39XM9p0cX0uCc99/n87S2bZdr6uHuPvqnhthPF3NaPztY54QOqFXD59a0e1trE2Vff4v5LVxPVt/aqz7NuWAEBYtIkHn++EwVTx9gaTigef70zfEY3wC9QRGlnxzbWThx030b3USrdvdvToH85t97ciMsZ1ipa6en4tnXcAc07RLPDB9enRPwaFQkFOZgHffHrAo7pkEczLXFRkOB3a/2vRSaUCgNCwUEYMG+Ryu5xcM7/9vr7Metet28CY8WPQaXVMumMSarWar77+rlQZX18TkyfdSp9+fQgKCir1nkatKdn3/gMHOXos3uV+XnjxVeZ/MZfg4GC6dO3K/C/msuirxSxavNSpbPeuHRl0/UC6dOuCr6/jsUNzXh4rlq8s83MUW7X6dx565CGMBiOjRo8iNzeXz+d95VSucaMYRt8wkjbt2hLTIAalQolWo+W5mc4rzmdkZLFg/pc8MP0BNBoto8fdSKs2rfngvdls27G7VNmO7dtw7wPTaNI0FgUKLBYLX877koyM8lc27ti+DUrlP/ehiv/t6+dbZt9arTZ+XLWmwmNSljNnz7N1yxau69ObRo3/efwvbtPmCtsrhKg7OrRrh95FUEWpUJT8Oyw4lF69ejqVsdlsLhc0A6gXHUW9mJiSBdyUSmVJHceOHuN8QoLTNlEREdRv2ACvolmsOp2WXr16cio+nlOnz5T7OTZt2sxtEyeh1xvo238Aefl5rFjp/HsjKiKCvn370qRZcyIiIlEolWjUGj6Z84lT2aPHT/D7b6sZOnwUWq2O0WPG0aFTZ1b88D07djkHZoKDgxgxYiTt2rbH6OP4Y9putaH39i6z3U2bNEGp/OdYK4p+FRhMPi6POZR/3ItV9/Hfun0bA64fgkar4YZRN6LxUvPzL7+UKmM0GhgxbASdu3ZzWsjPy8urpD0nj5/gzDnXMzc6deiATu98/Iz6f8ZsZFQUBpPzHxnuHCcZ/3Vz/F/cpqZNS+e4Lu7boICgMveRb85jy7ZtZdZbU+N/7qdzeP75F/EPCKRVm7Y8//yLrF71E6vXOH//a9WyBT169KJNm7YYTI6JJvn5eaxf63oRtZro32L1GzbklZdfZe0fv7lsO8CokSPp3qMXIaGOFBPHjx2pcNz/W+sxt6N1cT5rjXrajL+D3Ys/86i+YnqTmjse7sje7Qks/fyAy0XF7pjRmrbdIhx5v+0KtqyN59h+1zPAGzbzISzKgMHXca4rVQp69HcEVw/sTHU5q7FjrxC0OlXJ07s6vZoe/cPJyy1k+8YLpcpu35hAv1GxaLQqRtzSArVaxZrvS/+NZjCpGDqhMZ2uicYvsPTEJrVaWdKe+CMZnI3Pdfk5Ylv5ljp/KfqnwVdTsv2/2Wyw6ffzLt+72PGDmfyx8iiDxzdHq/Ni1MSWtO8Rzo+LDrNrc7JT+aAwLcMmxNKmSwTGouNqs4K3wXWY44t39xHd0I+YWH8iYny479lu/LHyGMu/PFaqXHRDA7fc24YGTQNQKBTkZlvQaFV4qZUln9NmhU1/uP5MXXqH4eWlKPWawfjPjbCIGBMGk3Ou+LLGQXGbohv6lPSbQvnP+Dl2MJ3EM2anbSJj9MTE+qLSOC6yOm8vevQP5/TxTE4fz3G5n6AwLU1alV6DwHH9tBMQ4l1mH+fnWdn2Z5LL94rlZFlZtegQE+5pi1qjpN+IWBq3CGTJ3L0c2ZtRqmxsK1/GTW1FTOMAUNgpLLTx06JDFS5OWx3js1vfcLyNjv7y8nKcJ5lp+ezd5nq2rH+QN936hpdZp06nctkP1T3+oXrP3+IxCv88MVVWvWdPZhF/NLvCOovV1PXt8//byTPv++Ef5E3LjmE8835v1iw9wq8/ON/YbNk+gG79omjVMQyDj+P45+cV8ufqkxV+nri1Cdx8jwW9UU2foY3IN1v5afFxp3KRMXquG1Kf2NZBRET7oFCCRqvk0zd3O5W9Us+viiQn5LNvRyKdekUR3eCfGf17tiZ4tFg1gKJ59z72SrdEVKuoyHDmfzkXna7iL5iu/PLzamY+/1qZ7z88/V5uGDsaBQpsdhuJ5xNIz8jEZrdh0BsIDQvFW+e4cNhtNvbt24dK5UXzFqVnfKSlpjFsWNm59gYN6M3kqZOIjq7nqAs72VnZZKSnk5Wdg4+PEX8/f7wNehRFZ5AdO6fiTzH/s/msXrPWrc97//13MX78uJLFJ5MSkkhPT8dms+Hja8JoNGE0GlGp/rmLl52dxdxPPuWbb8teAHTibeMZP2FcyR8xVquVzIxMUlMdj5gEBATi4+tTUm96WhrfLPqGeV8uKre9S5ctIjS0crml9u7Zw3/+U/nHOqMiw/ns808wFP2xkJmVyeTbpridDkcIcWV76MGHaNu+4sfzynPsyBFefKn0GhJtW7fm/gemo1K7/uKdlpbKjOkPlXqtQ7t2TLvvwZI/7i+WnZnJ/Q/cV2Fbxo8dx8DBQxw3Ee12UlJSyMos+n1mMGI0GPDWG1Cq/rnhmJuTy3ffLeb3310HiQCGDxvGgAGDMBXdlLVZbeRkZ5GVnUWeOQ+9wYDJ5IO33rvUzcw8s5kN69by1aKvXdb75ltvExjo3or0/3b08CFeevkll+/V1PG/5aZb6DdwIAqFArvNRnJyMtlZWdjsjqBYQFAQ2qInxmw2G8eOHEHlpaJho9I5VzPTM3jwIec0DY888igtW7V2fQDcdOjgAV591fnmNsj4h7o5/osFBwfx4ouvoNFqK7WPjX9uYM7cOWW+X93jv1jXLp0ZdcOYkpncdrud3NxcsjIzMefmojcY8PH1wVvnDUXBfbvdTsL5c/zw/VI2x20p93NWV/+OGjmSkTc4/11gKbCQnZ1JZmYW1sJCvPXeGPRGfPz+ybV9/txZ3nzjNbfTyxTKOkvlAAAgAElEQVQLbdOJfv99DZWqdMDRZoV1s2ZyZvM6t+t69oNriKzvS0ZqHt56NRqd49zMMxeSnZFPTlYBdrsdg0mD0UdbsuCl3W7n4M4k3n7K9XHvMyya8Xe1RVnGZMKEM1k885/S7Xzs9e40blnGuWJX8OvyIyz55GCpl8f/pxl9hzcqGp+QkpRDdmY+Npsdb72GgBBvtDrHNcpmg+MHUlB5KWjQtHTAMzMtn0dudb5p8cq8vgQGV26BuGP7U3jtUfduYg0Z35B+Ixph8nOcx1arndysArIy8sk3W9CbNJh8dOgMai4anuTlFvLnLydYMudQmXVHxuiZNL09MbFFN6jsCnJzCshMy6MgvxCTnw6Tn64kgJ2bZeGHBfsZeVsL9MbSQet92xJ555nSff7ch9eWpBPwlKtxANC6UyD3PN0VLy/XD/CnJZt5/PbfSr3Wrlswd/23i1MgHiA7o4AZN//i9HpQmJbnPuhbMu49tem3eD77vz0Vlrt+TH0G3BBbqn9zMgvISHcE8X39vDH4aErO6az0fH79/iirvjlRbr3VMT5fmtub4HDnm+12GyyZs5vflv8TGJ29fGip69Dhvcm8+fimkp+f/fBaIi8aGznZBUwf79wP1TX+q/P8dYzRbi7Hmyt5uYU8MPZnj9pQ3de3Yp2vDWXELc1L0mzY7XZycyxkZ+RjzrGgN2ox+Wrw1mtAYS8pk3A6m5VfH2TLevcWkRxzRxP639DE0Yd2BSkXcsjOcHweg0mLwahGZ1CXGlO52QV8/8V+1v5Y9o3iK+n8cldQmJan3+1d8js3N8vCzPvWup0Op5jMAL+MZWVnk59fUKkAeGFhIfl55Q+Gt97+ALVGQ+++vTGZTIRHRBD+r8dh7dhJSrzAsu+W8uWCJbz//ltO75vNru+eFVu9Zi2r16zl6acfpXffPui0OkwmEyaTczoUm83GsWPHWPXjzyxessy9D1vkvfc+weCt57q+1+Hj40toWCihYc4LlthtNpJTUti/fz+fzZ1X5uz1Yl98uZjff1/P4088TPv27VCpVPgH+OMfUHpWj91mY+fOXbz55ixOnqx4RWKrtdCjz3fxfsxm5zv8njhz9jx79uyhW3fHIkNbNm2R4LcQV5G8/HzsNhsKZeUyodlsNvLz81zWa7FaXAcA7Xbyzc7bmPPMFBZaXAYAzRX8Hiu2+JslaL11dOncDYPJSGBQEIH/enKpuN0Z6WkcP3qM779fWubsy2IrVq5k0+ZN3D5xEs1btEKpUmLy9S0JGJX+eHYyMzI4eGA/P/zwvcuZvsWshZW7/ttsNvLKOSY1dfwXfr0QtdqLTl27YTAYCA4JITik9A1du91Oamoqv//6Cz+tWsXjjz3h1J48F2MIID/PjN1uR6Fw74+of7NbbeTnua4bZPzX1fFfzGw2YykoqFQA3FpoJb+g/H1U9/gvtjluC5vjtjBlyhS6dOmORqvBYDBgMDjPdLZbbZw+c4q/Nqznl19/deuzVlf/Hj58GEt+AZnZWWze+BfdevQkIDAQtUaNf0Ag/gHOAd2c7Bz27tnFkiWLPA5+AyTu3krq8cMEx5ae9Z8af9Sj4DdA0rkcwqN92bnpPHu3JnLD7S2IiPFB5+2FztuLoDDn45+clMOGVSdZtaTs4IE5txCr1VbqRlQxu91Ovtn5vMjPKyzzWlhYaMWS57zN4o8PolYr6XhNFAajhqAwg1Ob7XY7qclm1q44zurvTjLjla7/apCC/DyLy89hK7SV+RnLY7M5biK466fFx4lbd5Zb721D07YhqFQKTH7akoBOqeba7WSm5XN4zwWWf3XY5Uzoi52Nz+Wlh/7ijofb0KZzOHqTGr1R7RTctlrtnD6WxqKP93L8YCbDb23m9H6+iz4oyK/k33hljAOAvLxCCi021wFwu8JlO8y5FqwWK15ezr+TzGX0rzmnEEuBtVIB8MJCO/n57o2Pn789ydY/z3P7A22Jbe3oXx9/LT7+pfvXZoPDey+w8IPdFfYrVM/4LMh3PcPUUmDFYin9nt1mh6Kgos0G+ebSx9lqLd2+svq7usZ/dZ6/jjHqeryVVd5T1X19K7ZlfSJb1icy6aFWdLo2Go1WhcGoKfUUR1Fl2Kxw9mQ6G389VepmiDu+/ewwWm81Ha+JwGjSEhiiJzDEOcBss0FGqpkTh1JZsfBQmbPXi11J55e7khPyObo/mdadHZMC9m1P8Dj4DTIDXAD160dz881jCQkJwc/fHwVwISmZ+FPxbNoYx5ZtO6tsX40bxXDttb2oX78+oWEhGIxGcrKzSUlNJSkhiZ07d7F23cZL2kdYSCCTJt1GWEQYPr5+aNRq0tLSSExM5MTxk/y1cZNbAWpXOrZvQ9duXahfP4aQ0BBQQFJCEvHx8Wz6O84pNcrlbP78j2kcG0t2Tja33zJZAuBCiCtegL8fw4aPIDgoBKPJhFrtRVZmJsnJFzh37iw7d+4qN3BTnqiICNp36EBkZBSBgUHoDXoK8gvIy8sjJSWZ7du2sn1n1f2+vBKEh4Ux+PrB+Bc9CQUK0lJTOH/uHLv37OLAwbJn4ImqJ+O/ZtXk+I+KiKBDx45EREQSGBiIXq8nJyeXzIwMUlNTOHjwwCUd/+ru32FDhhAWHoGfvz8mkw9KpZKcnGyyM7NITU3h59WrKhX4/rc24+8gok1nAM7v3c6ur8ueye+Jtl2DiG0dSEi4kYAgHUovJVkZ+WQkmzl/JrvcwHdtCY3yZtDohvgH6fHx02JXQHqymYTTWezZmsSh3Zd+vGtKZIyett3CiIwxERDijbdeg6XAitlcSFpSLjv+TmDnpgsVV1SGcXc2JaKeDwZfLV5eSnKzLaQn5/Ln6lMc2JVWhZ9EuBLbypdWnUIIj/bBP9gbJZBywcz505ns3ZrklLrhalPd4/9KVJPXt8gYPe26hxFRz0RAsB5vg5rcbAuZ6XmkXsjl8J7USz7+/kFahoxvTFCoHqOPBi+Niuz0PFKScjl3KotdcUluBahdqUvn11Pv9aJeQz9ysy3MvNfz2d8gAXAhrkqjRg7hkUdnoFAqWfv7Wv731PO13SQhhBBCCCGEEEIIIUr0GhTBrfd1QKmErRvO8MmrlbspX7lnP4UQV7QRo0agUCrJyc5h9uyqmR0jhBBCCCGEEEIIIURVuW5wA5RKMOdYWDrvQKXrkQC4EFeZ4UMHEhvrWIhp27ZtnDlb+RV5hRBCCCGEEEIIIYSoaj36hxPd0LH+3oFdSSQneJ76pJgEwIW4yowcPQqlUok518yncz+v7eYIIYQQQgghhBBCCFFK76ENUKocC2muWHBp66tIDnAh6qCmTRpy7/33YNA7r1Qf2yQWlUpFXn4eJ4+fBOD48eO89NKbNdxKIYQQQgghhBBCCHG1im5oYOyUluj0Xs7vNfJHpVJQkG/lXLxj0c6zJ7OY/84ej/fjXLsQ4orXv39fOnbsWG4ZnVZHs+bNAIiIigAJgAshhBBCCCGEEEKIGtLp2giatQspt4xGq6J+kwAAQsJNEgAXQjj8+NNqmjZvirdOV2FZu93OoYOHa6BVQgghhBBCCCGEEEI4bPz1DA1i/dFoKw5R27ERfySjUvuRFChCCCGEEEIIIYQQQggh6iRZBFMIIYQQQgghhBBCCCFEnSQBcCGEEEIIIYQQQgghhBB1kgTAhRBCCCGEEEIIIYQQQtRJEgAXQgghhBBCCCGEEEIIUSdJAFwIIYQQQgghhBBCCCFEnSQBcCGEEEIIIYQQQgghhBB1kgTAhRBCCCGEEEIIIYQQQtRJEgAXQgghhBBCCCGEEEIIUSdJAFwIIYQQQgghhBBCCCFEnSQBcCGEEEIIIYQQQgghhBB1kgTAhRBCCCGEEEIIIYQQQtRJEgAXQgghhBBCCCGEEEIIUSdJAFwIIYQQQgghhBBCCCFEnSQBcCGEEEIIIYQQQgghhBB1kgTAhRBCCCGEEEIIIYQQQtRJEgAXQgghhBBCCCGEEEIIUSdJAFwIIYQQQgghhBBCCCFEnSQBcCGEEEIIIYQQQgghhBB1kgTAhRBCCCGEEEIIIYQQQtRJEgAXQgghhBBCCCGEEEIIUSdJAFwIIYQQQgghhBBCCCFEneRV2w0QQgghhLhSzBr+HiadD3a7nZfXPMvxjPjabpIQQgghhBBCiHJIAFwIIYQQwk3+en8MWhMABq2xllsjhBBCCCGEEKIikgJFCCGEENVqcoc7uL7RoNpuhhBCCCGEEEKIq5DMABdCCCFEtRnTYgxDW40kPTeNn4+tru3mCCGEEEIIIYS4ykgAXAghhBDVxtfbDwCtl7aWW1I1zJY8vFQa7HY7Zou5tpsjhBBCCCGEEKICEgAXQgghhHDT3Uun1nYThBBCCCGEEEJ4QHKACyGEEEIIIYQQQgghhKiTJAAuhBBCCCGEEEIIIYQQok6SFCiXqUEDetOzV0+81CoA8sz5PP/CawDcO20qLVu1JDQkBP+gABQKBebcXM6dS2DDug3M/+Jrj/fXuWM7eve+hgaNGhIaForRZESn1VFYaCE7O4fMzAw2rP+LTz6ZV24948aOoG3bdiiKbq2kpqQxZ+48nnjiYRrHNiY4OJic7Bzi4+P5ccVP/LhqDQD33H0Hnbt2ITo6Ci8vFenpGaz7fS2z3v3I7c8w5sbh9OjZg+CQIAL8AzCaTOTn5ZOekUZKcirxJ+N59bW3PT42xfr1vZbhI4YQFV0Pg1GPt84bm91GTnYOWVlZnIo/xdw5n9GlSycaNW7I558t4MzZ86XqaNwohnHjx2A0Gkpes1ntvP/ehyQkpdC6VXPGjh1N8xbNMPn4oNPpsNtt5OaYSc/IYM/OXcyb9yUJSSketb2q+rciU6dMpHXbVgQFBePv74fRYCTXnEtmZgZpqWns3buP9977hKZNGnLTTePYs3sv3y1b6Vbd1d2/QlzNekR3p1/jgYT7RaDXGNB6Oa5v5oIccvKzOZtxmkU7v6J9WDvqBcTwzZ4lJOQkuayroW8Mg5sNR6/RAxBsDAFArdLw6DWPVdiWY8lHWHpgWYXlxrYYQ/3Ahk6v/3VyAxtP/13yc5Qpghta3kjDoFiMOhMFhQUkZZ7n291L2Je8v9x9jGo6ksYhTVCgcHrPbrexZPdiTmWerrCtF+tVryedo7vipXR8BcsvzOPdv98F4Na2t9E0pCmBhhB89f4oUJBfaCYxK4EtJ//muwNLPdoXgEljYkqnKUT4RuFvCMSo9cFmt5JnMZOYeZ64k3/z/aEfAJjcYTJBhuB/PiN2dp7dzq/Hf/N4v0IIIYQQQghxuVA0797HXtuNEM6+XDCHhg0blfxssVh4+KFHmf7wAzRo6PwHfzG7zcbKFT+6HQgcc+Nwxoy7kajIKBTK8h8IsGPn5ImTvPziq+w/cMRlmRUrvyUgIKDk54yMdLKysomKinIqm5qayiMzHuOmm8bTf0A/p/3bsfPTyp94+eW3ym1XWEggjz7+MJ07d0blpSq3bMK588yf9wXLV64ut9y/vfveG7Rv3x5lBccoNzcXrVaLSqXim0VLnAL4Tz31KIOHDHba7pHpj9KpS0eGDx+O4aLguCvZOdl8/933zP7oswrbXdX9W5YWzWOZPuMBmrds4TJQdLH4+HjOnjlLj549OH36FBPGTyq3fE30rxBXs2f7zaRFeGtUyvLPL3NBLhovLSqlipV7vmfejs9dlnuox0P0atyn0u3Jystk8pLbKiz31c3foPHSOL2+ev+PzNn6CQAT291O/6YD0WuNTuXyCsx8u+PrkuCvK1+M/wq9tuxr8uz1s/jt5B8VtvVibw2bRUxAg5KfLVYLL65+hild/0O9wPplbmez2/jt0C98HDfb7X0NbDiAG9uNJ9AYXGYZu93OkaSDfPT3BzzR7ylCTGGl3j+bdpoHV9zn9j6FEEIIIYQQ4nKjCo5u8FxtN0I4a9qkMf7+/hQWWtDpdKhUKrp270JERAQA6WnpHDtxnO1bt3LgwEFyc3IJCgpC5eVFkyaxhIQE8uefmyrcz+Q7JtKqVSsUCgV2m42kxCSOHjnKtm3biNsUx4njJ0hJTsHHxwdvb2/8/f1p1boFy5aucFlfh3at0eq8wQ4ajQadToePjw8AZ06fZkvcVlLTUgkPC0Ov19OnX2+at2iOQqEkMyuTPbt3s3fPXkLDQtFqtNSLqcfRw4c5feacy/0NHTyA5196ltgmTVAqlVgsFg4fPsL+/fvYFreV06dOk5WVhU6rw9vbG6PJRNduXakXHcm69X+51RfvvPs6nTp1QqFQYC20cuTwEXbt2MW2rds4sP8AiQmJ2GxWfH190Wq1JUHyU6dOsX79xlJ1+fv50qBhA/Ly8sjLy0Ovd8yQ1Ou9GTxsCBqNI5hz7tw5Dh8+zPZt2zl69Cg5OTkoVSoMBgMajYZWbVoR27g+v/22rkb715VJt03g4cceJioqCgUKUlJSOHniJPv27iVucxynT58mLS0Ng8GATqfDz8+P6HrRAOTn57N40bdl1l0T/SvE1ezZvs/ROqo9SoWSQlshJ5OPsT9hL3vO7eRI0iGSs5Ow2qyYdD5ovLQoix7vOZdxmrgzcS7r9NP4EukXTUFhHmZLLja7FY2XFjt20nJSMFtyy/wvpyCHk8nH2XByfYVtbx/eHgUK8ixmzJZcdGpvFAoFxy4c4UjyYZ7p9xw9Gl6LxksLwIWsJI4mHSLXkoOftz9qLzVNQpqxdG/Z16CWIS3xUqlL9lH8n3fR7Pat8Zs4kX7So2PeyK8BPjpfrDYr2qIbCu0jOxLqGw5ApjmD+LST7D27g2MXjmAuyMVfH4CX0osGgQ0J0gWw9ezWCvdzZ6e7GN1uPEadCYCkrASOXTjM7rM7OZ9xhnxLPnqNHrWXhkBjMB0iO6JUKNFrDJgLcsk0p5OTn8PBxH1l9rUQQgghhBBCXAlkBvhlbvKkm5l619SSn+3Y2b5tO08/9TwZGVmlyvbvdx3TZzyIn78f5rw87r37Pg4dPl5u/X369GLE8GEkJiWyZvVvbNuxu8yy7733Jh06dgBgyaLFvPPux2WWnfnck/Qf2L+kzRs3bOSxx58ueX/upx/SvHmzkp/PnTvHs0/PLJl5fOfUiUy6YxIAK5av4NVXnWe0+/qa+HzeHEJDQ7Bj5+CBQyxc8BV//PGny7IPz7if7r16ovf2xmq18v6777Hkm+XlHB0YOWIwjz3xqKONZ8/y3rsfsH6D6xsL/ftdx73330NIiONx/1U/reLFF98os+7uXTvy5tul3881m1mzeg2vvz7L5TYvPP8Uva7rhUatwWa38fWCr/hwdtkzwaurf4s1bdKQt995C19fX+w2G5s3xfHwI0+WWf6Jx6czaMggNGpHoD8pKYkbRk1wWbYm+leIq1n/hv24u9cDACRknGd+3By2nN/msmzPqB7c1uUOgopmEq89vIb3N73v1n6mdJzK4JbDMRfkctuim6qm8S7MG78Ao9bEH4fW0Cy0BeF+kQDk5mfzy8GfWbDry5KyUzveSd+mgzBbcpjyze0e7+vbiY5Z45WZAV5sTIsxTOj0z0x3u93O3nO7+L8Nb5JVUPr3e8+oHkzpfjc+3r7kWfJ45qfHOJ4RX2bdPaK7c+8109F6aSkotLD55Abe2fiOU7k2Ia2Z2Hky9QMblXo97uRGXl//WqU+lxBCCCGEEEJcbmQRzCvM+nXreeD+R52C3wC//raOrxZ+jc1uw1unY+SoERXW98cffzJ9xhO8+urb5QZHAe6//xFSU1MBiG3SxO027929p1TwG2DL5i0l/87KyuLVl14vlXZjztwvyMzMACA8ItxlvTNn/o/QUEewedNfm5g6ZZrL4ChARkYWzzz7Mh9/+BF5+XmoVCom3HxzhW1v1bolAFarlWefeb7M4Dc4jv+777yP3WarsF5XcrJzmPnM82UGvwGefuZF3p/1PgWWApQKJSNHjyIsJLDM8tXdvw9NfwBfX1+sVivz531RbvAb4NXX3mbB/AUUFhZWWHdN9K8QV7Omwc0BsNqszFr/epnBb4C/zmxk/uY52OyVu77VpD5NB5QEv0+nxvPmH6+WCn4DzN02h/98O7lSwe/qEhe/kZm/PesU/AbH8V+++ztsdhs6tY7+Ta4vt67x7W5B66Wl0FbIV1s+dxn8BtidtIdHfpzBnrM7q+QzCCGEEEIIIcTlSALgV5CtW7bw5H9nlltm4VffkJWZCUBo0UzkqpRwPgEAXz8ft8pnZWXx3DMvOL3+8SefYysKFP/8088ug7MpyY5grKu8tH369KJTp04AHDp4iEce/Z9b7fn2uxV8u/hb7DYboaEhPD+z/O1SUxxtUCgVREdFVlj/H3/8ydlz57DZbZw+dcatNoFjlvzyH37gz782V1j2u2UrWfe7I/WJ0WBk0uSJbu+nIp707y03j6VVm1YA7Nm9hzlzv3BrH59+toATJ06UW6am+leIq1m6OQ0AhUJBmMn1jcaL/X12M4mZCdjsNs5nuE5LdbmwY2fPmR1MX/kAu5P2uCzjKtBcW3af2c4b618vt8z3h34gJz8boNRClf92U+sJRPo70kztOr2dlUd+rHD/H2/6gPTcNA9aLIQQQgghhBBXDgmAXyEsFgsPPvi4W2WLZ4ervKq+e63WimfuXiw/P5+EpBSX79ntjuw7xbOOPdG1a2cUSiU2u42FC772aNvZH33GqdOnAWjYqOwFRYvL5ubmolQomfHodB564G58fU3lbvPw9Mf53xNPMf8L99t17MhR3v9grtvln5v5ComJSQC0btvG7e0q4kn/tmnbGqVCiTnXzJyPP/VoP3GbNmO32UhMSHD5fk31rxBXs4W7F2IucFzf7uwxjUntJ2PSlH99e+nXZ3nj1xf57sDSGmql56w2KxuO/M7M35+r7aa4xWK18Pzv5d/cLpaV57jBrVKUvWBpjL9jgc3s/Cze//tdt+pNyEli7ZFf3SorhBBCCCGEEFcar9pugKgGds/Tuvfq2ZXRN44iMDAAg9GEwahHo9FgtVixWCyYzbmkpqcTGV7xLMGaEBMTAzjShjRoUJ+pU+p7tH1qSioxMTH4+flVWHb9unX0HzAAo9HE2AnjGD5qOOnpGaSlpZOemkZySjLHjx0ryTd95ux5zpw971F7TsWf9qg8wPlz5wgNDcHPt+LZ2tXRv8W5zs+cOcPO3fs8avuHsz9j+fJVZR6nmuxfIa5mcSf/omejPhg0Roa1HkX/ZteTlZdBRl4GmbnppJlTiU89yU9HVwGOQGlCTlItt7p8m078ybtuBn6vNO78eg80OWaHp2aneDTLff2JdYxoc2PJQqdCCCGEEEIIUVdIAPwq171rR267/VZatGyBWq12LqB1/M/P34/wiIiabVw5QoIdf+CbTCYmT5lU6XpMPuXPdgR44YU3OHL4GDfdMoGgoCB0Om/CwrwJCwsrVe6e+6Zx7sw5flm9xqPZ30CFKUFcSU9LB8DboC+zTHX2b0BgAAAXkioXDCvvJkFN9q8QV7P3Nr3PibSTjGw1Gn9DIDq1Dp1aR7AptFS5W7tMITHzPH8e++Oynv0NkF2UJuRq5adz3PhLy/Xs6apTmafJL8zHW+1dHc0SQgghhBBCiFojAfCrWMf2bXjy6ScICHAsomiz2zhz+iwXLiSRnppOamoqKpUKb703gQGBhISGEBYeik5X+38cF16UqsNisVS6Hqu1kI7t21S4QOSixUtZtHgpQwcPoG371oSEhODj64efnx++fj7otDo0ag31G9Tnzrun0qVrZ+69d4bb7TCZjB63vXiSXlmfv7r716A3AJCekeFx2ytS0/0rxNVs5aGVrDy0kt71r6N5aCuC9EGYvH3w0flg0vmi9dKi8VITHVCPCQETaRvVgWfWPFXbzRZlsBRdPzVemlpuiRBCCCGEEEJcHiQAfhWb8ej0kuDosWPHWLl8RUkaj7J89NEsWrepupzTlZWUdIGo6GgSzp3nxjG31Nh+f1y1hh9XrXF6ffjQgQwY2I9mzVtgMBpo174db7z+Ao8+9rRb9dYrSvnhibBwx4ztlGTXOdaru3+zc7Lx1nsTFBToQavdU1v9K8TVbO3Jdaw9uc7p9T4N+nBNg2tpHNwUvdZAi/DW/Pe6J3ll3cu10EpRkdTcZEJ8QvHXe3Zt7h7ZVWZ/CyGEEEIIIeokSfR4lRo+dCD1YqIB2LN7NxNvu7PC4Ojl5OzpMwCEhoXSuWO7attPVGR4hYteAqz48RceePBxnn7qmZLFKTt16eTWtgBNmsYSFuJ+sKJrl/ZER0cBrlOQ1ET/pqY4Hq8PDg6p0nqh5vpXiKtZmCGkwkUvAf448QfP/z6TN/94heTsosV3I9u7ta2oeUlZjsWFA41B9KrX0+3trm3cp7qaJIQQQgghhBC1SgLgV6lu3buhVCgpsBTw3DMv1HZzPLZr127s2FEolUy4eVy17KNH984s+Goe87+Y6/Y2m+N2sPjrxQBoNFoGD+zn1nYBAYE8+fQTbu/n3vunodfrsdltbN+20+n9mujfxMREACKjIujX99oqrbsm+leIq1mHsHa8PepD3ho+y+1tdiftYeWe7wFHeo1rY66pruaJS7Dz3A4KrYWoVWrGtXPvCZoBDfrTLqpzNbdMCCGEEEIIIWqHBMCvUiovFQDmXDMJSa5TaPzbtHumEtu0SXU2y22rVv/OwQOHAOjatQvT7pla5fto0aI5arWa4OBgxtw43O3tLAUFJf/Werv/OHn7Du15+qnHKiz31lsv06hRIwB279ztcsHNmujfrXFbsRZa0Wi0TL3zDre3KzbjoWn8sHwJr7060+m9muhfIa5msYFNUKvUBBiCuL7RILe3K7D+c33Teenc2sZmtwHgpXKxEK+ocuvjN7D9dBwAEX6RPNXnmXLL94juztgON6NWSVY8IYQQQgghRN0kAfCrVPzJeAB8TCbGjhlRbllfXxMvv/IsN90yAZ3WvbBcB2AAACAASURBVIBHTXjn7ffIzMpEoVQyeuxoJt02we1t//vfGSxf8Q0/rVpK1y7tKyw/ZOgQt+oNCwlk7ATHjOWCgnw2bdrs1nb5BfkoFUquH3I9X389j/79rnMqM3bMCJYuW0S37t0ASEtN45WX33BZX03073fLVhK32RFkqRdTj7fffsWtlC++viZmzXqV0eNuJCgoiKjoaJflarJ/hbia9W0ywK1ygd4BDGs1CoCCwgJ2nNvm1nbHUo4AoFapubXtbW5t06dBH6Z1mUY9H9fXB1G+19e/xoUsx1M67aI78uGoT+jTwDnFybQu07j3mukEGAKx2+013UwhhBBCCCGEqBEy3ecy1bRJQ5o2iSU4OBgApVLJiGGOWXq79+7n5MnTTts0bhRDi+bN0Kgds+y8vb0ZMWwQhw4f4dDh46XKrlu3gTHjx6DT6ph0xyTUajVfff1dqTK+viYmT7qVPv36EBQUVOo9jVpT0p79Bw5y9Fh8yXtDBw/AaDIC4OXlxYhhg0hOSWXj31tcftbQkBCGDh7gcnFJAF0Zn2PP3gMs++57Jk68FW+djil3T+Wa3tcyf94XrN+wyameqMhwJt9xK926d8fPzw8Am82G3mBwud+LNW3WlK8XzeeHZT+waPFSl2WmTpnIoMEDiYhwLE65f98Bp+NelgXzFzBuwjhMJhP1Yurx3AvP8Ojj2aSnpaNQKvD388fboEeBAoCzZ8/w+dx5nDl73mV91dm/F3vhxVeZ/8VcgoOD6dK1K/O/mMuirxa7PEbdu3Zk0PUD6dKtC76+vgCY8/JYsXyly7prsn+FuJo1DI7l3REf8MuhVaw85Pp8HN9yHNfG9iPUJwyAo0kHOZ7h+rrwb+vjNzA1/270WiODmg8hz2Lm2/3fOpWr5xPNoCaDaR7ekii/eigVStReGt7Z6DpNS8ugFiiVipKflUXXRx+dD/3qu85nbcXmcqFPV7pEdsGkdr5+KJT/zB0I84lwua/y9tPQN4YG/g0JLFqkUqlQltRxKOUQZ7LOOW1Tzyea2IDGqItm0XtrdPSr34cTacfL7IfP4+ZyW8dJhPtFEuITyrReD3J7lylkmjNQq9T4ePuj9dIAjln6cSf+omFwLCGmsPIOixBCCCGEEEJccRTNu/eRKT+XmV49u/Liy8+jVrt+XDw5+QIjR4wv9Vrv63ow84Xn8PJyvqeRnp7O0CGjnV5/ePq93DB2NAoU2Ow2Es8nkJ6Ric1uw6A3EBoWirfOMSPYbrOxb98+VCovmrdoXqqetNQ0hg27EYBvvl1QEgC+mM1u4/13PmDxkmUlr63fsAaVSlXy866du5g2bXrJzwsWfEqDhg1Kfs7KyuL6QSOd6p486WbGjL0RP39/AKxWK1mZmaSnZ5Cbm4uPjwkfP19MBmOpwEVubi4/rviRWe/MdqoTHAHtyVMmOb1eUJBPRkYm6WnpWCwWDEYDPiYf/AP8S8rEx8cz48FHyk0/0r1rR9582zGD+5Hpj5Kdk8v9D9xDk6ZNy+z7AksBG9Zu4JlnXyqz3mLV0b+uDBrQm8lTJxEdXc9RF3ays7LJSE8nKzsHHx+jUwDfjp1T8aeY/9l8Vq9ZW+7nqK7+FeJqNr7lOMZ2dM4PXVBYQHZ+JhnmdAptVvRqPUadCV9vv5IyZ9NO8/yvz5BiTnV7fxPb3c6w1qNQKpTYsZOcdYGsvAxsdjtGrQmD1oBeY0Cl/Od3Qk5BNou2fsmqoz871ffR6DkEGSu3AO/hxP08ufq/5ZZ58rr/0SGmS6XqL3Yk8SD/Xf14qdc6hXXg4X7/KzPdSGpOCnd9VzqlVJfILszo/TheLrbJzMvgjiUTy23HI70eoVNMd5fbA6TlpPDLgZ/4Zv+3fHjDx4SYwog7uZHX179Wbr1CCCGEEEIIcaWQGeCXIXOumUJLocsgqB07ubl5/8/efYdHVW0NHP7NZFqmpPdeSEJJaKH3jnRBQMSGV+wdr72jop+9t2sXxS6igFgREVEBpQjSexKSkN6Tmfn+OMkAziSZhHTX+zz3uTJzzj475+xp6+y9ltPjxUUlVFRWugyAl5WUujzO408+j1anY8SoEVgsFkLDwgj9R/Dajp3MY1l89smnvLP4Q5577nGn50tLSxz/Li9z7htARXk5VZWVpzxms9kcAXC7zUZp6an9tFqrTvn3P5+v8cab7/HNNz9w083X06t3bzw8PPDx9XUETP/Z39ycHP7Y+Cevv/G2y5n0NbZu3Up5RTl5ufl89823jBk3hqCgIHQ6PYGBgY7Z+ScrKCzg9/W/88LzL7mde9txvG07uPTSa+naJYHpM6YRHBSIyWzBaq0iIz2DPXv28v33a2qd9f1PzXF9XVn1zWpWfbOau+66iRGjRmLQG7BYLFgszulQbDYbe/fuZeXyr065GVKX5rq+Qvyb7cjaQXlVBYVleazdu4Yh8cMJMAei0+jw0wTgZwpw2qeovJDNRzbx9qY3GxT8Bnj7z7fw1HoyMG4wZr0XgZYgAi3OAWyb3UZeSQ67s3bywZ9LOFTg+jVstdkadPyT2y+tcP05dbKyqlJsdhtqVeMyxdnsNsoqnT+zSqvKsForXQbA7dhd71NZTKWt0mUAu8yNv+WxtY8RtSWSgVGDiPaLwd8UiNVWRWFZATsy/mLpzs/d/KuEEEIIIYQQon2SGeCCmJhI5s6dRVBQED6+vqiArMxsDh46yPp1v/H7xj9bu4tu6xQfzdChg4mNjSUkNBiTyUx5eTklJSUcyzjGTz+tZfWP6xrd/rzz5xAZHUVgoD/ePj6oPdQUFhSRl59HZkYm7y/50O3A9z9ngP/yq3v5dBuqJa9vp/hohg0bQkxMDMEhQZjMZoqLijiek0NmRiZ//rn5tM5/c19fIf7NZnSZTrh3BL5GP7w8vVGp1JSUF1FQXkB2URbLdnze4MD3P/l7+jEzeTZB5mAsnl5oPDQUluaTVZTJkdzDbEj73WUKENEyXp7xKv7mQJkBLoQQQgghhOhQJAAuRCtpqQC4EEII4Y735n6MTqPlh51f8/yvz7d2d4QQQgghhBCiSTRuba8QQgghhOgwzutxHjqNFjt2Nh3Z0NrdEUIIIYQQQogmIwFwIYQQQoh/sXFxYzmj6xQAisoK+eXor63cIyGEEEIIIYRoOlIEUwghhBDiX2p2t9lMTJ6KQWvAbrez8ZAEv4UQQgghhBAdi+QAF6IFDRs6gLPnzMZgMKDReNApIQGAPbt3U1VldWxXVFTIddfd0lrdFEII0UGMjR3DyMQxaD202FEBytc+o9aEj9EXg9YAgB07fxz8nUU/PtiKvRVCCCGEEEKIpiczwIVoQSNHDqdnr55Oj9cEwk82dfJ4ln25qiW6JYQQooMaEDOYxOAudW5TWlHC6t3f8trG11qoV0IIIYQQQgjRciQALkQL+nrVtwQFB6PTaevcLud4jgS/hRBCnLa1B9ag1+rxUHmc8rgdO4VlhRwrzOCXg2vZcXxnK/VQCCGEEEIIIZqXpEARQgghhBBCCCGEEEII0SGpW7sDQgghhBBCCCGEEEIIIURzkAC4EEIIIYQQQgghhBBCiA5JAuBCCCGEEEIIIYQQQgghOiQJgAshhBBCCCGEEEIIIYTokCQALoQQQgghhBBCCCGEEKJDkgC4EEIIIYQQQgghhBBCiA5JAuBCCCGEEEIIIYQQQgghOiQJgAshhBBCCCGEEEIIIYTokCQALoQQQgghhBBCCCGEEKJDkgC4EEIIIYQQQgghhBBCiA5JAuBCCCGEEEIIIYQQQgghOiQJgAshhBBCCCGEEEIIIYTokCQALoQQQgghhBBCCCGEEKJDkgC4EEIIIYQQQgghhBBCiA5JAuBCCCGEEEIIIYQQQgghOiQJgAshhBBCCCGEEEIIIYTokCQALoQQQgghhBBCCCGEEKJDkgC4EEIIIYQQQgghhBBCiA5JAuBCCCGEEEIIIYQQQgghOiQJgAshhBBCCCGEEEIIIYTokCQALoQQQgghhBBCCCGEEKJD0rR2B4QQLe/d997Ax9sLm93OfxfczM5d+1q7S6IdkfHTsS16cBFmswW73c7jjz/CocNHWrtLQrQYGf9CCCGaw30vDsfspcNut/P03b9weF9xa3dJtCMyfoQ4fRIAF6IWd955E6PHjkbrceJlUlJSyrhxU1qxV03D398Pi8UCgJfFq5V7I9obGT8dm5ePLyaTCcDx/0K0hgcfXERoSBh2lYsn7fD4Y//H9h07mvSYMv47voROnZgx4ywCg4IxmU3otXoqqyqpKK+gvLKCirJSSkpLObh/P++8u7i1uyvEv8q865PpNyIKtceJherlpZVcN3tVK/aqaXj56TGZdQAYzdpW7o1ob2T8CHH6JADejtxw/ZUcPnyYjz/5orW78q9gNpvRaXWnPOah9WiStkePGkb/AX1Qq+tvr6Kikg8//IQDBw43ybHbq5YY/+fOncXgIYMICgrE02gEOxQUFpKbk8O6n35m8ZKPm+3Yp0veH8S/2dw553DsWDrf/bC6tbsimpDRZELlocZV/BtAr9PV8sy/i4x/951z9hyGjRyJweB5yuM6Dz06vR7zSY/FxsZLAPxfZsj4MDp18WuStnZtO866b9ObpK1/E0+TDo321CytHpqmydqaOiSIbr0DUatr+1Q5obLCxrfL9nPsSGmTHLu9mn1pZzKPFLF6RfOthho3I5ru/UPxC/DE4KnFjp3iwgoK8srZvD6dbz472GzHPl0tcX5Ey5kyNx7/IM/6N3TDwT35/PDlvzt+0xZJALyduGjeXGbOnklOTo4EuFrIrbfew8yzpmDQ6UlISmTMuDFN1vZlV8wnPDzC7e2Nnp7ce99DTXb89qa5x/+ECWM4/4JziY6OdnrOx9eHqKhIuvfszsSpk1j26ee8/9HSJu/D6ZD3B/FvNmXyZMaeMYGCvDwJAHYwTz/5BJ2TkrCrTgQrPA0Gpk0/qxV71bbI+Hff6JEjGDV6LBqdFpvNxoH9+zhy5DB5OTloNFoMRk98vH0we1kwG03k5eW1dpdFC+s9KIzkPiFN0pbRopcAeCO8+OAmRkzMRKv3IDrem34jo5qs7ekXdiMozP2VPQajhtce29Jkx29vJp4dx5hpnSjILWuWAO+AkaFMmJ1IaJTF6TmLt56QCAsJ3fwZMi6GH1fs4/sv2lYwsbnPj2hZfYYGMXluZ1Sq+m+QuSMgNFsC4G2QBMDbCT8/ZTaCQa9v5Z78u9QEEy+79KImbXfPnr14ehpRn/QG6+3tjUqtpqyslLLSMsfj5eUV7N27t0mPX1pailanxW6H4pK2nz+sOcf//IsvYO7556DXKW2XV5STlZlFeloaNpudsPBQAoOCMOgNREdHc9lVl+EX4McLL77e5H1prJZ+f2hv40c0THlZGVqNFjs2Sk96L2qrvL28AdDqZTZwR3Pg4EEOHDx15ldSYiLTpjffMWX8d1zDR45Go9Nirazis88+YvmKla3dJdFGWa12igsqnB738FBh8lJea0X5FdhsdqdtTF46PDyaJoDyb1UTTJx6fnyTtntkfx4GT49TAlwmLz1qNVSUWSkvq3I8XlFh5cj+giY9fnlpFVqtB3a7nbKSqvp3aGVePsrvCq2uaVZAn2zK3HjOmJmIVq+0XVluJfd4CVnpJdhtdgJDzfgGeqLTexAaZeGs/6Tg5adn6Vt7mrwvjdWc58eV9jZ+2psDu/PJSi/C06i8x5u9dahUKspKq6gst7rdjqdZh0YjnwFtlQTAhWgFt992n9Njn372PsHBQfz+2wZuvfWeZj3+9DPnNGv77cVF8+Zy3gXnotUqy+02/7GZq65a4HLbRQ/dw9BhQ9Hp9Mw55xx0Oj1PPf1iC/e4bZDx07HdeOMNrd0FIVqNjP+OKzAoCIC//toqwW9Rp+z0Yu66bLXT432GBnHprf0AePnh39i5xXmVwKLXRhIQIvUD2qKXFv3h9NhDb47CP9DIX5uO8eKDm5r1+LfO+75Z228vJp4dx4TZSUqqG7uKXVszeey2X11ue/ntveg1MBytTs34s5LQ6Tz48H87W7jHbYOMn+aVnVHOnZf86Pj3E++PxWzR8+v3h3j3he1ut3PPC8MIj5YaWW1V0yTUEkKIdujMGWei1WqxWq18u+rbWoPfoNy0WL5sOdYqKx4aDyZPmUzf1J4t2FshhBBCNJaueqXXgf37WrknQgjx7zViUhwarRqr1c6vqw/WGvwG5abFT6v2YbXa8fBQMWR8LEndfVqwt0KIjkQC4EKIf6WF991BQEAAAF8u+9KtHOsP/9+TfPTRR9ix42n05LIrL23ubgohhBCiCZWUtf3UNkII0RFdcnMPfPwNAPz01X63cqwvfm473y3djd1ux+Cp4ayLujZ3N4UQHZSkQGmjkhLjmDlrBiaTEYCQkFAAdHo9ixbdXe/+u3bs4s133nf53PXXXk5QSJDT42lH03ju+VfrbPeKy/9DZJRz8cac47k89vizde4786wpDBo8iMCgAPx8/TBbLJSXlZOXn8vx7BwOHjjIw//3ZJ1t1KZvak9GjBhKbHwcwSHBmC1mDHoDVVWVFBUVU1CQz09rfuaVV95sVPt1Gdg/lfFnjEXnIv9mRXklH374Mdt37G7y47rr3Lmz6NatC7hIRWW3wRtvvMWevadfXXv0qGFMmTqRiMgoTGYjngZPbHYbxUXFFBYWcujgIV793+v069eH+E5xvPH6Yo4cdV0cqDnHP0D/fr0YNHQwAGlpaTzy6NNu/53PPvsKAwYOJCYmms5dkpgwfhQrVylL0jrFRzP77JmYzSeWvtqsdp579gUyMo+TktyFWbNm0KVrZyxeXhgMBux2GyXFpeTl57P1z828+eY7ZGQer7MPzX1+TtZS4yciPJT58y8kPCIcf/8AvH29UalU5OXmczw7i6NHjvLqq2/VOmZONn7sCAYPGYxGq+TkKystZ+H9/wfAVVfOp1tyN4KDgvAN8EOlUlFaUkJaWgY//fgTb729pFH9b8rx35ImnDGe2LhOLgu+2O02li1dypG0tAa12b9fX3r1SsVDo3zFKC8v49VXlc+WWWfNJD4hAT+/AHy8lWtcVlZGVlYmmzZt4Mvly+ttPyoygrFjxmEwKuM/wF+5kaXT6rnqqqvr3f/g/n18uWJFg/6m0SNH0KNnb3z9/PH28sJoMlNRUU5BQQF5+XlkHD3Km2+/1aA2p06ZQmSUc+Hd39b/wu8bNzr+HRoSwqRJk4mNjcVoNlNZUUlW5jGWLfucnbt2Oe3f3Of/n7p0TqJPal/CIyPx9w/EaPJErzNgtVZRUlJCUVERf2z6nU8/a1vFg0HGv7va0/iv0Tc1ld59+qDRaB2PqdXKvJ+evXrTqVNCrfseOXyIz5ctc+vvaKnxf+a0aSQkJOLr64uXlzeenkZKy8soKiykID+fvXt288FHHxIVGcH4Myaye/dOVq/+sf6GaZ7re7K+qakMGz6SkNBQPD2NGPR6bDYbpaUlFJcUk552lM8+/ZTk5GTCIyNZtuxzsrKyG328tmr2/CR8g4xOj2elF/HpG3X/Tph+QSeCIpwLBRbklLHkpR117jtiYgTd+4XgE+iJt48BT7OOyvIqCvMryMspJeNwAYufc395/8mSuvvQe1Ao4bHe+AV5YjTq0Bk02KpslBRXUlRYzuZf0vh8cdPWMgLo1suP/qMiHDmkT1ZVYeXbpfs4uKeoyY/rrnEzoolJ8nX9+WKzs3zJLo4eLDnt46QOCWLIuGiCI8zK+ff0wG61U1pSSXFhJRlHClm2+G+69gokPMbCl+/vJjuj3GVbkXEmRk2Jw2BSPr8CqserVq/hstt71duXQ7vzWPnR/lqf79LDl+79ld8sWelFvNeAtBIfv76LlL6hhEZZiE7wpd+IEH5bnQFAeLSR0dNi8TSf+C1ut9r56LUd5GaXE9fZi9FTY4lJ9MVo0aE3aLDboKy0kqL8CnZty2bFB3vIzXZ9Xmo09/k5WUuNn4AQPVPPTSIo1Iy3vwGLtx4VUFBQTn52GZnpRSx7d2etY+ZkfYcF03NACGqN8llbUVbFG09sBWD6vATiu/jjG+iJj48BlVpFaWkVxzOK+OOXdFZ+6N55+aemHP9Nxl5dG+KkGhEJyd4MGRuFzvNE+LWy3Mrrj7u+ATRkXBhdewWh+kc9iQM7c1n1yQGX+7TG+Qcln3+nrn74+Bvx8tFjMGkpK62kuKCSgtwy9v19nI9f30VknImx0+PZs/04a1YebfTxTpcEwNuouXPnMGbcGKfHNRoNw0eMqHf/nr16uQxwTZ08nllzZrvcx2azsXTp8lqDMj27d2Pu+XNRq5wXDtixs3XLVlZ9s9rpuZAgf2665Ub69u2Lh+bULykaswaT2UR4eATde3Snb98+vPXm2yz7clW9fyMoQfWZs88iIjwCldq5XxqNBoPBk4CAAGLj4hg2fCiLHni4SQPS554/l169a//Q02g03HnX/U12vIa6cN4FmMy15yL8df2vpx3AfObZR+nVq5fjx+XJ9H56/Pz8iI6OJrVPKnq9Hg8PDwrzC3nqmZdcttdc47/GnDln42kwYMfOF59/UW97/7T8iy+54uorUKvUjBpzIgA+55zZTJg4wXn7L1cw6+yzmDJlistrodPp8fH1ISYmmpFjR7H0k6W8+FLtRTab+/ycrCXGz/nnzWb2nNmOYp4nCw4OIjg4iK7dutGnb18+eP8D3ln8YZ3tnXfhucTFnSicVFlZyfIvV3LDjdcSGxfntL3OW4e3tw+dkxIJDQ1p8I24ph7/LWnK1Ol4Gp1/kNfYsmVzgwOAk6ecSURkpOPfVZVV/LRmDeeffyHhJz1ew6zTYvayEB0bS4B/QL2BlgkTJjFg0GCnxz00HvTp26/e/nXp3MXtAKCfrw8XXngRycndUf/j88tTY8TTaCQ4JISkpM50Te7OsmWfsnbtz261PXnKmWh1WqfHC/PzHAHAs2fNZtjIkRiNp74GA4OCiOvUiWVLP2XlV6d+Xjb3+a8xeuQIxoybQFBwsMux76HxQKfX4+PrS0REBKmpffnf/15xKmrZmmT81609jv8ak6ZMIzomxuVznTt3qbNvySkp9QbAW2r8x0RHc955FxDXyflGjUljwmQyERwSQkJSEj169SIzI4MevVOJi4uvNwDenNe3xs033Uznzl1ReZx6jjxQCrd6+fgQGhZO124p6HR61B5qSoqKWfKBe99R2otBY0IZM931TRebFdasPFRrUCa+qxdnzOqMi59fYFexZ3sOv6855vSUb4Ce865OpmvvEKeinBqNFk+TlqAwE4nJAXTpHczy9/5m3bfu3ZgfMTGC0dM6ERhmxsXwB40HOoMHPv4GIqJ96DUonDee2NSkAenxsxPo3D2w1uc9PNS88n9/NtnxGmrSnM54mpzf42ps23DstAOYCx7sR2JKEOp/3gPQgFbvgZevgdAoC116BqHVe+DhoaKkqJIPX3WdQ3v8jHj6jYxyelyjUZE6OLze/nROCawzwDt2RrwSfLbb+emrA/W2909rVx1g5sUpqNQq+g0LcwTAx06PY9DYGKftf/76EKOnRjP0jFiX10Kr02Px1hMaZaHvsAh+XL6Xz96uvchmc5+fk7XE+Bl/Vgxjp3fCy9fg9Jx/oBH/QCNxXfzo2iuYbz7bXWvgtcaEsxOJiPF2/Luq0sbarw8x94ruhJ/0eA2LVofFy4+oTn74B3k2+EZcU4//hurWy4+0w8VON06O7M/HN8DIgb0nakSMnxFP9/5hp2xntdprDYBPmJ1IYKjZ6XGLRVfrdWjp8x/dycw5l3cntrPzjRqTWYfJrCMozESnbv6k9A0lK72Q7v3DiE30kwC4cLZ161a6JXdFo1Xe+AwGAxaLBTt2suuZFWG329m313V+w01/bOHA/gP4+Pjg46vkz8rKysJuh6zsrDpnJP655S927tiJf0AAKhUEBipfOvJyc8nOzuav7c5vJpMmjOXyqy7Fz88fUAJRe/bsJTPzGNnHsjBbLAQFBxETE4Ovny8hYaEsuGkBPXv1dMzYrEv/Af2JjFQ+iOw2G5mZWaSnp3P06FFyc3KxWCwEBATQLbkbPr4+xMbGctsdN3P+eZfU27a7/tr2F7Fxsfj4nMhHlpeXR2VlJeXl5Wzb9leTHasx/tr2FzFxMU5vTDXX73Q9/cwjpKamAmCtsrJnzx6OHD5CTk4OKpUKf39/oqIjiYmNxXhSoMHs5TyTpUZzjf8agUHK335g3wHefucDt/7Ok7235BMmTppAbFwciUmJJ/q9ZRs9evZAq9WiVqvx91fG/ZnTpzJ42BBU1dOo09LSSE9PJz0tHbVaTVhYGGHh4QQFBWI2mZl7/lwioyK4/faFLo/f3OfnZM09fh5/bBH9BvRzBBDS09LIyDhGWnXQKSwsjJCQYELDwvD18+XSyy+lZ6+e3Hjj7XX0eTtmswW9Xglsa7Va7r3/bkeAPS83j6PpaRw+eJDKyioiIiJITklGq9UyecokUMHDD7sXBG+O8d+S9uzeRXhEJP+cYOJb/Z7dGPv27MJoNKLT6jB7WdBoNVx55dV4Vb9HFuYXkJl1jPT0NGxVVQQFh9IpIRGNVsPQESNRqeCNt2oPAu7ZvZP4TgloqgM2Or0Bk8kEdju5uTl19s1uV2Z3umPQoIHMnn0O3tX9rqqs4vChg+QcP05ubg6eJiP+fgGEhYXj5eNNYFAgF154MZ07d3HM+K3Lgf378A8McCyu8PH1c7zOzGYT115zPZ0SEx2PHc/OJj3tKGaLF9ExMRgMnkw9c4ZTALC5z3+NlJQehIQqM7lsNhu5OTlkZWeReSyDwrx8PM0mfH186dQpEYu3F2ERkVw8/1LuuusOt85/S5DxX7v2Ov5r7NuzC4vFcsq1rbmuRQUFVFZVutzPboeM9PpverTE+J88cSJnTJqiXF8gLy+XnOzjZB/PJvd4DiaLphxaPwAAIABJREFUCR9vX2JiYjB7eREaFk5omBKE0emcVyWerLmvL8BN/72JLt2SlXNUZeXQoYMcO5ZBQX4+AN4+PoSGhREeHonB09Oxn9FU+02p5lZVaQPAarU1ug1rlb26LavjsV3bckg7WIDFRwm4AeRml2K3Q97xkjpnJO7dXsCB3Tl4+3miUoFvgHKuCvPKyc0pZf8u50KcA0aFctZF3fD2Mzj+riP788jJKiU3uxSjWYtvoJGwSC+8fPUEBps47+peJHUPcMwYrEtynyCCI5TgjM0GudklZB8rJiutiMK8cjzNOnz8PYnv4ofFW09YtBcX3tCLhVf95OZZrN/+HceJiPbG7H1irBflV1BZaaWyoop9f9f9ftjc9u44Tli0l9P355rrd7pueKAvnXsqK7qtVjtH9uWRmVZEfm4ZqFT4+BoIjjQTFuWNwXgi5GM01x5U3bM9h7gu/nhUzyDVGTwwmXVgV5F7vO5gq91u5+iB/Dq38Q1UXttphwr56uMD7vyZp/hm6UEGjY0iPMabqE4nJs3s2Z5DQnIAGq0HKrUKn+pxP2xiDD0HhjquQVZ6EcePlZCVUYJarSIwxEhAqBm/QE+MZi1nzOpMUISFl10US605TnOen5M19/i55p5UuqWGOoLH2RnFZGeWkJ2u3KQKCDUTEGQkIMSEl6+e6Rcmk5jiz7P3bqy1zf07jmM0adHqNVi8dGi0ai67ta8jwF6YX05WehEZhwuxVtkIDLfQqYs/Gq2aIePjUAHvuBmEbY7x3xDjz4phxrxkMo4Ucs8Vp95sVtL6nBrY3rsjl7BYbzzUajQ6DyxedX9GH9iVi4dG7bj+Fm+9UjS2Di15/ifMimXczARl/AN5OWXkZhaTXf0ZYzZr8fbzJLqTL2ZvHaFRFkKjlN++Wn3rZuGWAHgb9fEnX/DxJydmpt644GpmzJxBaXEJZ047u9HtHjmazrnn/ocxo4dz3/33APD2G2/z6VL3lj3Pn38VAGfPns6111+DHTuPPvI4q39c57Stt7eFiy+9GD8/f+zY+XvHTt5d/B4//LDW5bY3LriGgUMGY/T0ZMy4Mfz99w4+/KjuGTgrVnyFxkPDscxjfLPqOzb+UXsesWeffYzeqb2Ji4vnumsv4+lnXnbrb65PSUmp44eGHTub/9hcZzHFlnbDgltdPv7zutOvJD1t6gT69OkDQNrRozz7zPOs+Wm9y23HjB7OVddcQVCQc/qdf2qu8V/D20e5C3rIzUCAK3v37CM2Lg5/Pz+8vS3k5xfy+bKVfL5sJaCkxnnsyUcBGDJsKAAlpaV8s+obHnnkKZdt3r/wToYMH4JOq2Po8GFcecV/eOFF55ngzX1+Ttac4+fmm65jwKABAJSWlLJq5Vc8WksqpZv/ey3jzhiPp9GTAQMHcPNN19WauqYmeH3RvLnMv3Q+AH5+ftixs2njJu66cyH5+YWn7DNm9HBuWHAdPr4+jBk3ls8+/Zydu+q+UdBc478lPfHkEy4ff+PNtxvdphK8e4spkyczY6ay4sjLxwe73c7f2//ihRefp6io+JR9+vXpw3nnz8Pi7UX/QYP57vvvOHT4iMv2v/thNd/9sNrx7/PmnsvoceMpLStlwYIbGt3vk5nNJmacNRvv6n4f2LePFcu/YMOmTS63Pffc8+jVKxW9wcDAgUM4sG8f335f92tk0UMPnvLv5557EZPZhFar44477nYE10pKiln93Xd89MnHjm3PP/dchg0fRWV5hVO7zX3+a6xd+xNqDw9yc46z7pdf6kxHccvNt9C5azciIiOZM3sO73/YNmZ3yvh3rT2P/xpvL14Mixef8thrr7+JWq3my+VfsGqVeysNa9Pc4z8qMoIzJkzCZDJhs9nYtmUzTz5V+43ZeRdcyOAhw9C4mFX/Ty1xfYcNHULX5BQAMo8d4/33FvPH5s0ut+3Xpw9nn3Mufv6Nv/HUVDb9nI63r56//sxsfBu/HKVzSgCbfj5xIyU7o5x7r1xDn6FBXHqrslJj+ZK/WfOVe7PgHlqg/M4aPTWKsy/rDnYV7zz7J3+uz3La1mTxYNoFXfD2M2C32zm4O5evPtrNpnWutz3n8mR69A9F76mh34goDuzK44cvD9fZn3XfHkbtoSY3q4T1q4+ye1vtgb0bF/UjqUcQETHezJyfxMdNNPuyrMx6IiBkV7FzWyaP31p7McWW9sw9G1w+/sryyafd9pBxYXTpFQwoQd0P/7eNzb+6ngDTZ2gQMy9Oxi+w/htLq1ccYfWKE589cy7rwqip8ZSWVHDLhd+ddr9rgn7HjhTWs2Xtju7PJzzGGy9fAyaLB8WFVtZ+ncbar5XXW7deflz3wCAAeg1SZtyWl1ax/vtDvFtLypVLbu5Br0HhaLRqeg8M58wLC1n6lvNM8OY+PydrzvEz98qupPRTPmPLSqv45duDtaZSmntFVwaMjsLgqSGlbyhzr+xaa+oaJXi6nYlnx3HmBUqedi9f5X1o5+YsXn54I8WF1lP26TM0iHOu6IHFW0+/kVGsXnGQw/uKXbR+QnON/4YIibCgUoOXj96t7Vd+tN8x+3/cjGhmXpxS5/b/e+TUz8u7nx96yuxuV1rq/EfGmRg3Qwl+22zw14Z0nr2v9hsj513dlUFjYuoN4LeUttEL0eK+/e5HioqVO3zde3R3ej4pMY4pk8YxZdI4OsU752js1k15URUVFrkMfgPcd98dBAcrwZ71P69n/sVXugx+A+TnF3L3PYt4+YWXKCsvw8PDgzlz59b7d/zww1puWHArDz/8ZJ3Bb4BrrvkvOTnKbICExMQ6t3XXrTdfz3/mX4TRaMRqtfLtqm/aVPC7uSWndAPAarVyz90Law3+gTLmnnn6Oey2xs+qaSoWi3IHMiMto9FtHDqk/DhQqdUMGtC33u2Li4q57+6FtQa/Ae66+wGee+o5KiorUKvUTJtxJiFBrf+DsDkMGzqAcRPGA5CTk8Pdd91ba/Ab4JHHnuHuu+4lNycXgHETxjNi+KAGHXPNj2u49pqbnILfoIzP995dgs1uw9NgYNqZU+ttr72O/9ay6fffeeTRR5yCfwC/bdjAypVfYLfZ0OsNjBwxqhV6eMJll17hWMGx5c8/WHj/fS6DQwBFRcW8/PLLfPTBe1SUV6D2UHPGpCmNPvaQ4SMcwb+0I4d5/tlnTgn+Abzz7rvcsOBarr3uGrfbberzv2HTJp548gneeOutOoN/AP/3yP9RkKfMUqwtLUVHJ+PfPc01/ptac4//ueddgMliwWa18eXnn9UZ/AZ48+23+PKLpVirrHVuBy1zfRM6Kd+zbVYbL77wXK3Bb1DG/5J338HWBj4f1/+QzkM3/sKydxqfs/qzN3fz0I2/sOEn5yD6hp8yKSlSVh8kJDt/v4uMMzFoTCiDxoQSHu0csInr7AtAcXG5y+A3wPybeuNfHezZ+nsGi25Y5zL4DVBcaOXVRzfzyevbqCi34uGhYtzM2vPj19i0Lotn7tnAO89trzP4DfD47b9RkKsUno2K96lzW3ede1U3ppzbFYNRg9VqZ/0PB9tU8Lu5xXdRxo7VaueVhzfUGvwDZcx9+MpW2sDLC6NFCYAfP1Z3gK0uGUeVfdVq6JZa/2rU0uJKXnn491qD36AEG99/eTNVlTZUahgxMR7fAPcCm+1Nj/4BDBytrJ4vyC3jlYd+q7OOwHsvbueVh36jIFdZpTJwdBQ9BzRsFfAf69J44o7fnIKvoIzPVR/vwm4DvUHDsDOc407/1NLj39vfk9FTo075n5dv3TO425KmPv9nX5aCyUuH1Wpnxfvb6wx+g1LEdsX7f1NVZa9zu5YiAfB/saxM5ctQRJRzTspLLrmYW++4lVvvuJVLq2dQniwiUimEWVu6hZEjhzhmRu78eyf/vcm9JZ8ff/IFH3/wMXabjeDgIBbe17RLpTPSlYCnt4/Xabf1+OOLmHzmFDQaDWVlpby3+D3uve/h0263Pck5rtxQUKlVREbUn/vshx/WcjQtDZvdxuFDdc8ubC6TJoxFW506ZPv2vxvdzp9/bMaO8kZe83qojR07yz7/nLU/1//l/JPPvuTH75WlVGaTmXkXXdDoPrZl8y/5D54GA1arlSXvLmHdL7/Xu8+6X37n/XeXYLVa8TQYuPiSi9w+3obff+f22+6rc5t33/uIwoICAILdmKndHsd/a/lr6xaee+G5OrdZ+dUqiquDg605E7BP7950TVaW7R/Yt4+nnq79ptXJvvthNd98tQKbzYa/vz+XX3Z54ztht7N921buuPMOtu9w/cPEVSC1Nm3h/GdnK98XzJa2kf6nJbWF8++ujjj+24KGjP8JZ4wnMUEJIO/avZPPPv/crWN8/sUXHD1a98zdlrq++dUBf5UKx2SYumzYtImszEzsNhvHjjnns+5I8o6XAhAc7pzfddr5nZl3Qyrzbkhl2gXOueqDwszVbZS5bLv3oEDHzMiDu3N5rp7ARI3VK47w3dLd2GxK7t9Lbu7h1n7uqgl4mutZ9u+Oa+5NZdiEGDQaFRVlVlZ9tLPWPLodVUGuMobUKhVBYbXX6amxaV0W2RmF2G1wLK113jsHjApFU506xFXaHnft3JoNdiUtREh43bN67XY7P67cx9YNx+ttd83Ko2xcq3w3N5q1TJoTX88e7dPU8zujNyg3jlZ9vJttG+tPFbRtYw6rPtmF1WpHb9Aw9fzObh9v+6ZjvFRLSpkaX396kKIiZUWXX2D9KV5aevz3HBDK2Zd1P+V/KX1DG9xOa2jq8z9uRjQJXZXi63u2Z7PsXffSqn75/j7SD7qfAqg5SQD8XyztiLJUKCQ42Om5hKROjv9O6uI8W7omh3LaUdd5Evv374tKrcZmt/Hu4iUN6teLL73OocPKF/i4eOeCdafDaq067TZiYiJ5882XGTBwACpU5OXm8fQTz/DSy280QQ/blxdfep2SkhLUKjULbrqB66+9HG/vun/c3XjDLdxx65289XbDxkVTCQ1TPrDs2Pn2u7oLRNVl4x9bHDm91U7VN061d/cennvevZyZAPfe9xDHjikzh1JcrNDoCMKrA8Ybft/Ae0s+cXu/xUs+ZuMGZVlgWFhYPVsrKisrue66W9zatmZ2eE1+v7q0x/HfGqoqq3js8cfc2raoSDn/9b2mmlNKSgpqtRq7zcaK5Q0rkvvxZ59yLEOppRHhouChO2xWG+t+Xsujjz3aqP3/qa2c/yrb6X/+tkdt5fy7q6ON/7aiIeM/ISEJlVpNWVkpn378UYOOs3XzZmw2G9nHXc/4banr+/Fnn1JWWopKreaCCy/mnLPnYK6joDbA448/wrNPP8mXy91Ly9heZaZX3+gKdD4fkXEnZkhHd3KeLV2T/zcr3XUQp1vvQNRqsNvgq493N6hfn729x5GaIqyepfYN5cbChHoFR3hyxzNDSOmr5HQuzC/nvRf/ZOk7tRct7Kg+e3sPZSVVqNRw7lU9mD0/CZOl7s+Np+5azwsPrGflh+4VYWxqgSFKsNput7tcHeGu3dvyQVU9k1StqnPbw/vz+fQN918Hrz22heNZSi7vhG5NU+uorQkOVX6n7Nh0jG+Wul+U+ZvPDvL3n8rNyaAQ55t3rlRV2njqrvonOAEUFygzzNUe9f/+ao3xb7XaT/lfe9Ac579TV39UaiV1ztK3a1854MrWjRnYbHA8s7RB+zU1yQH+L7Zz5y4GDx2Mj483Kcld2LpNGcRTJo3DPyDAsZ1/QADTpk5w5DZOSozDt7pozs6drpd9RkcryyeKi4qJjY1h/sUxDepbzvEcoqOjTyksWZchg/sz46wz8ff3w2S2YDIb0el0WCutVFZWUlpaQk5eHuGhp3e3TqfV8cSTjzpmsxw7lsnCe+7nzy2tW+iyNa358UfGjB2L2Wxh1pzZTDlzCnl5+eTm5pGXk0v28Wz27d3ryOd+5Gh6ncVWm9uu6qXKKlScOW0iSz9f0ah2hg0d4PjvioraixcBHDpY94wsV9LT0ggODsLH+/RXK7Q1EyaMwWBQfsT9uHpNg/dfu+Zn+vXvj8HgyYQJY1i58tum65y9YV9q2tv4b+tqVlW0ptAwZUVHSWkp4RERhEfUvcLjn/Lz8gkNC8dibtxr9/ff1vO/V//XqH1PV2POf4+UFEaPGYu3jy9GoxFPTyNarRartYqqyirKyssoKMgnKLBt5b9vi2T8t+74b4zmGP81heOPZRxj956GBfc+/vQTfvzpR7JqWaHZktd3w4bfGDhwCEaTkXETJjJi1GgKCgopLMinoCCf/LxcDh8+7MgnnpWVXWu/O5JDe/LoOSAUs7eeuM5e7PtbWXk2aEwoPv4Gx3a+/kaGjAtz5DaOjDNh9jY42nAlJEq5LiUlFYRFWQib27AVN/l5ZYRGWbB4uZf+IaWPPyMnx+Llb8Bo0mI06tDo1FirbFRV2SgvraIgr4xANwNmtdFoPLj+gYGO1C7Hs0p49ZEN7N1ecFrttmebfj5Cv5HRGM06xkxPYNiEOAoKyijKK6cgr5z846UcOVDoyOeenVFeZ7HV5nZorzL7U6VSMWR8GGtX1V9s2JUe/U/EKKoq6v7MPHa44bnGszOK8Q80NslqhbZmwMhQdAYlULxpXcPP/x+/pNMtNQSdwYMBI0NZ/0MT/p5p4Neflhz/Py7f55RC58LrUhg8rv50Ie2Gm+e/Zob4sbSiBr//Ln1rD2tXHW7V9yGQAPi/2qpV33LhvAvw0HgwcuQwRwB8xKgRqFBRWlaG3WbDaDQyctRwRwB89OgRqNRqrFVWVq1yHXgKClTumlosFi66eF6j+2jxqvuL28D+qZx/4Xl07dbVkdbiFNXf33x8lUrzp0utVp+ylFOn1bZatfqQIH8ee+IRcnNzueaa/7ZKHwDuv/9Rdu/ayznnziEgIACDwZOQEE9CQkJO2e6Kq68k7UgaX6/6plVnv675aT1l5WUY9AY6dWr88rbk6iXEAPv3H6hz2/37G363OS9X+XHj2Urjqzn1SFHOXXlFueN9pSE++exLrr7+anRaHT1Skps2AN5A7W38i/r5+PoBYDKZmDb9rEa3YzI37gd/SXV9jrYuuVtXJk+ZRnx8Ahqtq6+Tyo9HC14EtrHir6J2Mv7d05zj37t68kduTv3L9l2pK4jcktf3tdde48ihQ5wxcTI+vr7o9HoCAvUEBAacst3Zc84lM+sYv6z7ucPP/gZY/8MRJp3TGQ8PFamDQxwB8NQhYahUKsrLqrDbwGDUkDok3BEATx0ailpNdc5r12nUfKpniJvMOqac65xCxV01uZpr062XHxPmJBKX5Oe6sJleCbJZvPUEhNSfoqA+ag8cwW8ArcYDT8/WCWP4Bui5dmF/ivLKePz231qlDwBvPrWNI/sLGHdWIj7+BnQGDwIMJgKCTj3fs+ankJlWxK+rD7fa7G+Azb9mU1FuRaf3IDLWG2hcADyui6/jv9MO1h3gTjvU8AB4YZ4SnDO00vhqTvFdlff/ynKr432lIdasPMqcy3qg0aqJ7+rXtAHwBmrt8W+3K0nF20Bq/Rbl5at8xuRlNW4Wd2sHv0EC4P9qR46mczznOEFBQcR3OpFqpFOCkv7kwL79WK1VJKekkJBwoiBKfCfl+ZzcnFpnMladlGqksrKy0X20WqtI7dXdZYHL1F7duf2uWx0zZWx2G0cOHyUrK5O8nDxycnLw8PDA0+iJv58/QcFBhIQGO2aeNpbdZmP/gf3ExMbi6+fLrbffzIP3L+LX3+rOr9TURo8ZRWxcLBGVDZu90xze/+BT3v/gUyZNGEuPXikEBQXh5e2Dj48P3j5eGPQGdFodMbExXHL5fPr179uqxUILCwoxBBqcgpQNER6u3FCxVllrLQRbw2JpeCBAVf174nReP22Vl6+ytLastPFLoKyVVtCCwfP0Xs9Nob2Nf1G3k1NlVVU2Pm2HzWYlKTGx3gJ57VFSYiLzL7ncEaiz22wcy8ggNzeHgoICCvLzUavV6A16vL198A8IICAgEJ2+YxaV6khk/Nevuce/wVOZ5VtU2PDgTX1a+vqu+uYbVn3zDYMGDaRzYmd8/fwxWyxYvLywmC3o9Do0Oi1h4RGcNXM23VK6838PP9TofrUH2Rnl5OeU4hdoJPykVCORcUpgL+1gATarnfiu/qcUjVSChkrhutqCCLaqE+GYqsrGh2ZsVjsJyd4uC1wmJHszb0FvvP2Ucark1S0kL7uUwvxy8nPLUKvVGDw98PI14BdoJCDY5Jh52ug+2SDtUD7hUd54+eq54PrevPHYRnZszj2tdhuq77AQwqO9qAo7vVntTeHbzw/x7eeHGDAqlMRkP3wDlJnLZh89Fi89Or0HGq2asGgvpl+QTNfeQa1aLLS4sAKd3hP/4MZP7gmsvqFitdprLQRbw9PsYnJcPVTVaVUqT+P101ZZvJUbW2Xljc9JVFVlQ6NVXt+trTXH/76dufQeHNGoVQbtmcGohI+LCipauSeNJwHwf7ljGRkEBQU58iJPmzoB/wAloLxp40bKyytITknBx9eXs2dP54MPPyOkOo1IZh1FajIzs4iIjCQjLZ2zZp7bLH1fcNMNjuD33r17+XLZF440A7V56aWnSOne+JzKNpuND5a8z3PPv8rC+25n1NjR+Pv7c/udt/HAfYv4feOfjW67oXQ65UNdrWo7qfyXr/yG5Su/cXp8yqRxjB03ms5dumIym+jZqyePPnI/N918Vyv0EvLy8ggMDCQyqvE3Dzp3TgLg2LGMereNim74EqmQUCXAfjy7cTPA2rK0I0cBMJstRISHNjglSExMJAaDEkjIza2/eEtLaS/jX9QtLzeHkNBQsjKzuPnmG1u7O23ShRfOcwT/jhw6xI+rv3ekMajNbbffTmKi+4WTROuQ8V+/5h7/pSUlGAye+Pj61r9xA7XW9V237hfWrfvF6fEhgwcxYOBg4uLi8TQa6dy5C9ddex1PP/N0i/WtNRzPVALgAdWpQYaMC8PHzxOws2NzJlXlNuK7+mPx0TN6ahTfLTtEQLCybU5W7UXc8rJLCQ63kHWsmDv+80Oz9P28q3o6gt9H9ufz01cHHGkGanPTIwNJ6Nb44r42K3z92U4+fWM382/qQd/hEfj4GbjoxlRee2wDO7c0vqhiQ2m0SuBPVU/+6Za0/vt01n/v/F160JhQ+o2IIDbRD0+TlqSUQK66K5Xn73evOGpTK8ovxzfA02UBWHdFJyrvizmZ9RczDI1o+HECgpTgfH6O60Kz7VlmurLCymjSEhCib/Bs3OAIT3R6JXyYn9f6M3lrtMb4X7sqrdFpfNqz0uJKDJ4afPzb74SWthM5E63i4MFDAI6c38NHDEOFipKSEl548XVee30xhdUzUIYOGwJAYPW2Nfu6cvSwsjQvOCSYvqk9m7zfUyaNIypaKcCzdcsWLjj/knqD302horLCUczw7nsWseaHH7FjJyAggNvvuo2e3bs1ex/akojw0HqL/gF8sfxrrr3uFu66825Hccc+/fq4tW9zqBmfEZGRXHvNZQ3e/+qr5hNSfdNox/a/690+MSmBkCD3v/j379eLyEglOJ+V2fhCMW3VL+t+w44dDw8Pxowa3uD9R48ajkqtxo6ddT+33kyW9jr+Rd3Sq4u8+Qf406X6Rpc4YcjgQY4bdLt2/c1dd99Zb/BPtB8y/uvWEuM/P0+Zdevr59ek7ULLXd/AwIB6i14CrP15HY899ijPPfs0x48rN/y7JXd3a9/2LKN61mBNzu/eg8JAZaespIqlb+3hy/f3UVykzLDrMTD0lG0zDtce+Ms4qjznH2giqbt7dZQaYtCYUEIilO8uu/86zsKrf6o3+N0UqqqsjmKGrz66mY0/H8Vut+Pjb+CiBanEd+149XLqEhCir7foH8C6b9N56s7feenB3xzFHbv2DnZr3+aQkaYEYIPDLcy6OLHB+8+4KIHAYOW94cCu+mf+R8X74hvgfqCuSw9fgsOV8Z2bXdLg/rV1W3/PxG634+Ghou/QhqeG7TtEScNkt9vZ+lvtEyGbW3sd/x1BQa5yY8gnoP2maJUA+L/cb79uAMCgNzBr5lQSEpX0Jvv37XNss2+v8t/xCfGMHDkEU/WX0k2bap/tvHnzFuzYUanVzJk7u8n7PWDgANQqNRWVFdx79/1N3r67br9jIT+vWYsdO0FBgdx9312kJDc+5157MmhgXxa/9yZvvf2q2/v8+tsffLDkAwB0Oj0Txo1uru7V6dlnXiAvT5ktMv6M8Q0KTgOMHjsGUNKfLF9efxFNPz9/br/rVrfbv+qaKzEajdjsNja14KqClrLxjy0UFSpfgsecMbbB+48aPQqAosKiFl11cbL2PP5F3Xbt2gl2O2q1mjPOmNja3WlzuvfoiUqtpqqikpdffKG1uyOamIz/urXE+K8JBAcFhdA3NbVJ226J65uSnMyiRY+wcOEDbu+zfccOvl6p5P/W6rQMGDCgnj1qFzdyIokTGp/fvCVs/0O5Ga7TezBiUgSR1alOjh48MZP56AElN3hUrA+9BwXiaVJWfu7cUnuO991/HQe7CrUaxs1ofJ2b2iT3CUalVtKrvPrIpiZv312vPPQnf/6SDnYVfoGezL+5D3Gd/x1B8ORUPxa+NJq7nxvh9j47Nufy7adKQV2tTk3/EadfF6sxPn51B0X5yo2dAaOjGxScBug3XJn8ZrXaWbuq9ol4Nbz9DFx0Qw+32591STIGowa7DXZu7XgFeXdvy6ekWEmt2X9kZIP37zOsuohycWWLrro4WXse/6dDpWobK05qbiQEhZpJHdI+6/tIALydsNmUPFRaXdNWJP7u+zUUVRccGjJsiGO2SU1gHOCX6iWLXhYvpp85BYCSkpI6C8+tXPU9f+/YCUD//v248or5TdpvD41y5660pJSMTPdSRFx5xXwSkhp+t7k+t9x6D+t/Xg9AcHAQ9y68i65dEurZq/3r2rULWq2WwMAZjn91AAAfzElEQVRAZp41xe39KitO5IzSu5m/uanHf0bmcVatXAUoBVJvvtX9IqKLFt1NUHVBq40bNrqd+71X717cdefN9W73+OOLiI9XfrRs+XOLWwUTm+v9oTlt27INgNjYWO666ya397v7rluIiY0BYPtf2+vctjm15PgXdXOMf03TjP/163913ARO7t6DWWfNbJJ2OwoPtfLVsby8jJxc934AzTprJjHRcfVvKBpMxn/Laonxv+2vLdiqrGh1WqY34vyfe85cnnzyaa65+hqn51ri+sbHx6PRavD182f0yBFu71dReeLz0aA3NPi4qfOuYdb/ljL4iv/S/6KrmPW/z+nzn+sa3E5L2Lg2k5IiJRDVa2Ao3tWFxbZvOpHTeOtvSoo9o0XLsIkxAJSVVNVZeO631Rkc2F09kz41lOnzmvb3iIdH9fgvrSI3270UCNPnJRDdqelno7/44Ca2/K6kIPAPNDL/llSiO7V+Xu7mFpvki0arxjfAkxET3U/lWFlxIu+z3s0Cjza7HQCtrmlmzOZml/PLdwcApUDq+VenuL3vZbf3wq+6EOqOP465nfs9qXsQF91Q/3GuuTeViOo8+7u3ZblVMLGpz09L2LtdeX8Ii/Zi3vXJbu930YIUwqKVm0z7d7Re+smWHP/NpeYmhIeHipQ+9U/Cm3d9MqGRbeMG3/ZNmVitdrQ6NdPOa/ikz7Mv7cwjb4/hijt6N0Pv3CMB8Hbi7x1KmgWtVstVV7oXTJ4yaRy33baATvF15x/OOqZ82erTpw8qVBQVF/Hqa287nn9n8Yfk5ytf8lP79gUgu44K8zWefvJZCgoLUKnVzJg1g3nnz3Gr3wC33baAZV98xIqVn9K/Xy+n5w8eOAiAl8XCrJlT62zL29vCoofu4Zxz5zTqC7U7/nvTHfz+m1IJPCQkhIX330NS4r/nx/7ESe7NIgoJ8mfWHGVFQEVFOevXu5e+ojnG/zPPvsyB/QcA6D+gP6+8+hwR4aF1tvnM0//HsBFKyo683Fwef9y9HJXlFeWoVWrOmHgGS5a8yZjRzmk/Zs2cyqefvc+Agcqsp9ycXB5a9Khb7Tfn+0Nzuf+Bhx3pQEaNHsWC66+sd58F11/JyDEjAcjMzOS++xY1ax/d1dzjX9Rt3wElmKPRatwO5gwZPIh58+YREeZ6Fsh7775NcVExarWa0ePGMXmi+zMl582bx5NPPc2zzzxP1y4db0VQ+lEl4OBpMjFq1Mg6tzWbTVx95dVMmDgZnb793KBrT2T8t6yWGP+rV//I1q2bAQgNC+fGBTe6lRLEbDZx44L/MnrceHx8fR01e/6pJa/vkKEj3GrXz9eH8eOVflRWVLJly2a3+1Qjftg4DN4nggQGbwtxQxq+yqyl5B5XCoF36RUMKjslRZV88d5ex/OrPjlAYXWhsa69ggHIO15/8fD3X95GSWElajWMmhLPhFmxbvfp/GuSeeSdMTy+ZBxdejjnoM84rMxK9zTrGDGp7uCTyeLB5bf3YvyMJHT65gkQPnffRv7aqKRiCAgycdltfYmM69jpc042eJx73+F9A/SMma6s8q6ssLFtg3vpFQ/sUn7/a7Rqt2+mDBoTyvnXJBMe7TpFwkev7SLtoDKOkvuGcOvjAwkIqXsm+PUP9CV1kDLeCvPKee/FrW71pbLcikoNA8dEs/Cl4fQZ6jxjdcSkCB56cxQpfZX3y4Lcct582r3Vpc1xfprbG0/86ZjF23d4FGdfWn9tirMv7UzfYcqM8ZysEl573L3JX82tucd/c1m7Ks1RpLj/iPBatzNZPLjm3lQGjolG3UaitmtWHuWvjcrN2ZBIC9ct7ONWShmTxYPrFvZl1NR4fPwNp1UH4HRJEcx2YuWq77n+v9djNpk5c8aZlJSU8Mab7zlt1yk+mhnTp9G9Zw+iY6NRq9TodXruva/2iuppR9OIjTvx5Wjfnn1O2+zZs5fUk5ZhpqfXX7Ru67YdfPbJUi644Dw8DQYuvnw+Q0cM460332bNT+udto8ID+Wi/5zHgIED8akuLmSz2TCanL/I/PjjT8w8eyYGvYF5/5mHVqvlvSWfnLKNt7eFi+adx8jRIwmozlteQ6fVMXXyeAC27/ibPXsPuvwbhg0dgI+3N/4B9edhvOeeB3nyqUdJSkokNCyM+x+8l3ffWYLdZuPo0XQ2/rHllO0njB+FVnuiOrVWq7wcTUaTo291CQwMrHebEcMH4WVxzjOsOuldNDwi3OXxrFaby4J+riR1TmLJ+2/x+Wef8/4Hn7rcZv7FFzB+wjjCqn9wb/9rBzt3OY81V5pr/C9+ezHXLbgOi8VCt65deea5J1ny7nt89PGp+eSnTBrH9JkzSKpeQVBaUsq7i99zu3jj4rcWM3vObCwWC1HRUdx7/93cdEsRebl5qNQqfH188TQZUaEsbzp69AhvvPqm2+031/lpzvGTn1/I4rfe4dobrkWn0zNj9lkkd0/h+WdfdHqtpPbqzlXXXkliUgIqVFRWVvLOm++Qn++68nZSYhxJiQmO14harXb0ccu27Rw44JyvslN8NF27dEZX/Zr09PRk6uTx7Ny1u95x2tzjv7n07tkTo4ugivqkZXYhgcEMGTLYaRubzeayoBlAVGQEUdHRjgJuarXa0cbePXtJz3AuHBsRFkZMXCya6lmsBoOeIUMGc+jgQQ5V5+yvzfr1v3L+BfMwGk2MGjOWsvIyvvjyS5fHGDVqFImduxAWFo5KrUan1fHK/15x2nbPvv18/90qJk05E73ewIyZs+ndpy9ffL6UPzY7B2YCAwOYOnUaPXv0wuylBGDsVhvGOmb5JyUmoj6piFZNPWOTxcvlOYe6z3uN5j7/GzZtZOwZE9HpdUw/8yx0Gi1fff31KduYzSamTp5K3/4DnAr5aTQaR38O7NvPkTTXRYT69O6Nweh8/szGE2M2PCICk8X5S7Q750nGf8cc/yf3KSnp1BzXNdc2wC+g1mOUl5bx+8baC2S11Ph/9bX/sXDhA/j6+ZPcvQcLFz7AqpUrWPWN8+dqcreuDBo0hO7de2Cq/swuLy9jzWrXRRBb4vrWiImL46FFD7P6h+9c9h3gzGnTGDhoCEHBSpB3397d9Y77f0qZeSF6F69nvdlI97P/w5YPXm9QezWSU/3w8j0RnKuZgQoQFe+Nf9CJc1BWUsWmdVm4Kyu9mPDoEwH7owfznbY5ui+Pzj1PBO2yM+ov/Lfv7wJ++HIPE87ugt6g4cwLutFrUCjL39/F5l+dJzAFhOiZPCeB7v3CMHsr70E2K3ianMMEm9ZlMPrMBHR6D6ae2xWt1oNvlp76G8pk8WDSnE70GRrpyFteQ6tVM2iMEmg8uDufowdd51nu0T8Ak0WLj2/9E5defXQT198/gOgEXwJCTFx2Wz+++mgnNpudrIwSdm879bz2GxGCRnPivUerUd58DCaNo291+eff5ErPAYEYzc7n7+T3vOAwk8vj2Wy4LOjnSnSCLwtfHs6aFfv59nPXKUGmzI1nwKhIAkOVz8r9fx/n8L76xxEoKwrmXlGJ0axl5KR4ykutrPjA+btreLSR4RNjSEgJICzSC5UadHo1rz22xUWrsOLDXZxzRXdMZh1xnf258eHBrPpoF6uXn/q6HzQmlJGT44hO8AXslJVW8dVHu9wu3rjiw52Mmd4Jk1lHSKSFS27py3lXV1KYX45KpcbircPTqAOVMpM7M62YZe/ucLv95jo/zTl+igutrHx/J3Ou6IFWp2b01AQ6dfXnw1e3Ob1WEpK9mT0/mehOfqCyU1VlY8X7OykutLpsOzLORGScl+M1olKrHH3c+3cex44438ALjzYSneCNh676deipvA4P7/v/9u49sMn63uP4p02atknT+40CVhR0InIR5KIiOFCnIk4n4nQq080dNxV0OM/OztzZObrNMz26M908c3NO5xWveEEUUQGR2xTkKje5yKWlTdskzaVJnuf8UVsaktY0TQGz9+u/PM/TJ788+fVJ8nl+z/fn/tJ+2hv9v+01SAfv+HIU2OIe6z07PNq51dtlGzvjOuBXeZVDw8f11fnTPJo35+AdBw6nRRdOH6hRE/qrsDj6fGPLsej0yX3iPvfhOv5//Z/VuvPBQhWV5urkkZW688GJevvFLXHfg5NHFGvspH4aMrJSjvzWz5dgIKwl83ckeKRSL+OkcWebR+zZ0S0333yDpk+/vH3yt9r9tWpsbJRhGMovcCovz6m8vDxZLAevwni9Hv35T3+JCfQ6uv667+i6713X/vhPDz8SU3bh8mlTNfPWWe2Pn3ziKf3hj4nVvv3ujCt12bRvtf8IiEQi8rjdamxsks/nU36+U/mFBXI68qKCNZ/Pp9dffV0P/O6Pcff741t/pEumXaoMZcgwDdXs26/GJrcM05DD7lBFZYVyc1pPAKZhaP369bJYrDppcPSIlQZXg6ZMia0V+Ktf/0JnTTirPZSUpEAwoElnxx8p88rcZ1VaGj+UDoVC+vGs29uDvcefeKS9zEVPRcIRnXVW7AiXe397t8adMa5H+96wfr2+//3YW2il1kDvu9fPiFne0hJUU5NbjQ2NCoVCcuQ5lO/MV1HxwR+BO3fu1G0zZydcvkbqvf4/edIEzbz1ZhV3mGzK7/Or9kCtTMNUWVlZe917SWpqatLDDz2sua/N77K948aM1L33t47gnn3r7fI2+3TzLTfqhBNPjLrw0VFLqEWL31usO39xd0LHpKNUH5/e7j9trrl6uqZfcXnU+cHd5JbL1do3iotLlF+Q397uxoYGzXlmjh574pm4+zvzjDG661f/2ekxrqs7oIunTo9aNnHC6frlf/2HrNbYL5uNjY268IJLY5Yf7v6farNmztKwET27/Wzbli266+7oORiGnXKKbr7lVlmy4l9fb2hw6bYOnyVSaxD5w5tmtpe26sjrduvmW2760rZMn3a5zj3/AmW2zs6j+vp6edxffB448pTncCjX7lCmpcNnTLNPL7zwrBYujB8SSdJFU6bonHPOk7Og9bZYI2Ko2euRx+tRwB+Q3eGQ05mvXHtu63N/IeD3a/H77+mpZ+KXMLr3vvtVUtK9uQfabN38qe7+VfxzxOE6/ld9+ypNOvdcZWRkyDQM1dXVyevxyDBbQ7Hi0lJlf3HHlWEY2rZliyxWi447fmDUftyNTZo5K/YcMXv27Tp5SOK3Rsfz6aaN+s1v4l/co/+nZ/9vU1ZWqrvu+rVs2d2rL9tm6ZLFeuTPj3S6vrf7f5sxo0/TNy+5rH0kt2ma8vl88rjd8vt8sjscyi/IV25OrvRFuG+apvbv26tXXn5Ry1es7PJ19tb7+82LL9bFl8R+rw61hOT1uuV2exQJh5Vrz5XDnqf8woL2bfbt3aN7f3tPwuVl2lQMHaVJP71HFkt0nVQjIr3/wC/1+fL3u7U/qfW283GTqxOvvWpm6L03tumpPyRWnm3KFcdp6tWD2x+/9Lf1MWUXzp7SX9++8WAN43lzPtVLj21JaP8XTD9Ok6YeL2dh6/9BJGLK52mRpymooD8ku9MmZ36OchxZUaMLA76wlrz1mZ575NO4+53+g6/p6xcd/0X/l+prm+V1B2UYpnLtNhWX5yo7p/UcaBjS9o31slgzNODE6MFE7oagZn8n9qLIv/zbCJ16er/2UFKSWoIR3XTpvLjtuedvk1RUGv9iTDhs6P6ffdAe7N354Pj2Mhc9FYmYunHq6zHLb/rFSA0d/eVBele2b3TpN7OXxl130ZXH66KrYu++CLUY8rqDcjcFZYQiyrHb5HDaoi7g7Nvl0QM/X5Zw+RpJuuy6EzT5khNa+4iZofoDzfI2tb7fDme2HHlZynFkRf3v+bwtevnxDTGBdkejxpfrih8MVX6HixwBf1gNB/wyTVNFpbntde8lqdndojl/WaulC7q+OHDyiGLNvOt0SdLv/n2p/P6wpn1vsKoHFctqjT+MNhwy9PHSPXrkv7t/50mqj09v958237jsWJ1zyaCo80Ozu0VNja0haUFhrhz5tvZ2exqDWvDy1qigtqNTRpXoxp+P6fQYN9T5dce170QtGz62TDf8dHTUBak23qYW3XblWzHLe7P/t76GsXHbE0/AF9Yt095MaNtDTbywn6b/YJgslgwZEalmj0f+5pBy7FYVl9mVYz94Dt2ytlbOwpz2EjRSax+aNf3g8Tlcx7/NaWdVaOpVJ6miX+uFBdM05WsOydsUlL85JHtedswFJtM0tX+3V689vUkrFx25SVQZAf4V8vvf/0mOXLsmfH2C8vMLVFFZoYrKipjtTMNQXX29NmzYoEf//Fino5vbvP7aPF0z4xpZrVa53U1xaw4/N2eurrn2WhUVF8k0DL3zTuIz3v/1saf09tvv6vafzNKIU0+VxWJRYVFRzKgYSTJlqsHl0sf/WK1H//p43JGabe67/yFl2Wya+PWJcjqd6lNVpT6H3M5rylRtzQG99MKLeuLvz+nBB++LWe/3xx994G/2S4YpdbjaakY6v14UCHT+ZSIQCKglFDr42O9vnSRUCX6p7kLEjH8V1u/3yzANZWYkd8+MaRjy+Tu/1XLt2rUKtgTV2NCkd95eoMnnTlZ5eblstmyVlZXFHaHu9ri1ctlK/eGhh7sd/vVW/1/wzvvatGmzZt8+U8NGDJcty6Zce66qq6NvqwoEA1r3yVr9/fGnk5p4ce26jbrhhls0+KRBuuTSi1VRXiZHnlORSFj79+3X1q3btHDhooRHfR8q1cent/tPm8efeFYLFy7SHf/6Y40YMVwWi0VFxUVRgXHb/lavXqN7732gy/OC3+dXOBSOG4CbMuXzBWKWN3t9agmF4gbgAV/813C4+3+qBYJBmYYRddGxOwzDUDAYeywDwaBCkVD8ANA0FfTH/o0/4Fc4HIobAPq7OK929Oyc55Sdm6PRp42Vw5mnktJSlRxy509bu5saG7R96za9/PKLnY6+bPPqa69p2fJluvaaGTpp8BBlWjLlLChoD4yiX54pd1OTNm3coFdeeTnuSN82kXA4odcVr/1dftYcpuP/5NNPKivLqlFjxsrhcKisvFxl5dG3FpumKZfLpYUL3tIb8+bpjp8cMhGwaSoQpw9JUjDQ+gM42Ul/zIihYCD+viX6f7r2/zZ+v1+hlpakAvBIOKJgS9fP0dv9v83yFSu1fMVKXX/99Ro9epxs2TY5HA454twZaUYM7f58lz5YvEhvLeh8jp6Oeuv93bx5s0LBFrm9Hi1f+oHGnn6GiktKlGXLUlFxiYqKYy9+NHubtW7tGj333DPdDr8lqeaTVXJt36yyQdGj/l07tyYVfktSMBCRaWQoI8HqHeFwROGW+N/J4/lgwR5d8O2TZLVmyOsJxq05/O5ru3XhFV9TflG2DENatajr/9mO3nh2u1a8v0ff+dFQnTisXBZLhpyF2e2BV0emacrdENTmtQc096nNcUcKtnn2/zYpKytTI8f3kyPPptJKh0oro/ukaZpy1fn13qvbNf+FHbrt12MOecIMBQMhxRP0h2WYZsefXzKMzn9/hVo6P58EA2FFwmaHxyHJzIgK15NldtKmoD8s0zh4V0t3GYY6PTaStHW9S6FgRG53UCve260xE/uruMyuLFtrXeR4FwN8npDWf7Rfzz+6qVvhtyQ9/+hmZedmaeT4KuU5s1VSbldJeWz5DsOQmlx+ffapS68++Wmno/vbrFpcqx1bFuuqHw7ViUPLZM3KVE6uVX2Oib7ztCUY0db1dZo3Z0tSEy9u3+TWPbOXqXpgniZeOEBFZTmyO7IUiRiqr/Hr88+atGrJvoRHfR8q1cent/tPmzef36FVS/bp2luGadApreeH/KLsqMC4bX+b1x3Qkw990uV5IRAIKxwy4gewZoaCgdj/U78vpEgoEvf3l7+T19Cb/b/1NcRvT2fbJ+u91z9X9cAijZ7YX1m2zJh+LzNDjS6/Fs7dqjef36Gf/e+ZUauDgejPmsN1/NusXFSjlYtqNGPWEI06q79s2RY58mxy5B1a7s2UEZH27GjU0gW79M7cL5+8trcxAvwrqLK8RDNmXK3KqkrlFxTKlpWlhoYG1dTU6LPtO/TB0mVdBkSdaat/3FkA17be4/V2Wnrgyww8vlrjx5+hAQMGqLJPhRyOPAWDQfl8PtXsr9HixUv03vtdX7E81LHH9teVV05TeXm5CouKlCHpQG2ddu7aqWVLVyQVViI5M66+Qv2rj1FZWYkKCguVacmUx+1VY1OjavfX6pmnn+tx8Ndb/V9q7Z+XT/+W+vXrrzxnnmSaamxo0P6aWr069w2tXbcx4X0dOgL8w+Wd31KdSr15fHrbyBFDNWbsaB17bLXKK8qlDKl2f6127typZR+uiCmNcrQ5HP0fXSsuKtSUi6aqrLRceU6nsrKs8rjdqqs7oL1792j16jVdBjdd6VdVpRGnnqq+ffuppKRUdoddLcEWBQIB1dfX6aN/rNJHq/+5Pm/6VFbq/G+cr6Iv7tSQMtTgqte+vXv1ydo12rgp/ghC9A76/+F1OPt/v6oqnTpypKqq+qqkpER2u13NzT65m5rkctVr06aNPTr+vf3+TrngAlX2qVJhUZGcznxlZmaqudkrr9sjl6teb86fl1Twfaih069T1dDW+Yr2rftIa57ufCT/0aKt/nFnAVzben9zuNPSA1+mb7Vdw8ZWqm+1U8Xlucq12xRqicjvD6uh1qePP9yv1csSL98iSRX9cnXepcepqNSu/MJsmRlSY51f+3d7tHZVbVJhJZJz/rQBquyXp4KSHOUVZCszM0M+b+toTNcBn95+aUe3g+9DFZVm64LpA1VaYVdevk1Wm0XexoDqa33au8ujNStquwxIu9K32q5JFw9QeV+n7I4smTLlaQzKVevTkrd2a/smd8L7OnQE+PqPD8+Ejb15fHrboCEFGjKqXH3656uoLFeZkuoP+LVvt1vrVtXGlEY52hyO/t9bRp5ZrtET+qmwOFu23Cw1ufzat9ujDf84oLWrvhq/GftW2zV8XKWqjnGquMyuXEeWfN6Q3I0BuQ74tHmtq9ufL72JABwAesGRCsABAAAA4J/NkQrAAXw1HCXziQIAAAAAAAAAkFoE4AAAAAAAAACAtEQADgAAAAAAAABIS9QAB4AUOWv8WE2/4nLl5OTIarVo4KBBkqStW7YoHD44cZHX69HMmXccqWYCAAAAwFfesDGlmnzJ8crOtijTmqljjiuUJO3a3igjbLRv5/OG9MDPVx6pZgI4CliPdAMAIF2cffYEDR8xPGZ5WxDe0dQp52nua/MPR7MAAAAAIO2MPKOPTjylLGZ5WxDe0emT+2jpgn2Ho1kAjkIE4ACQIm/NX6DyigrZbFldbueqdxF+AwAAAEAPLH93j4rK7cqyWrrcrqkhQPgN/JOjBAoAAAAAAAAAIC0xCSYAAAAAAAAAIC0RgAMAAAAAAAAA0hIBOAAAAAAAAAAgLRGAAwAAAAAAAADSEgE4AAAAAAAAACAtEYADAAAAAAAAANISATgAAAAAAAAAIC1Z3U2uqAVDxp/Tq0+4bvHbvbp/AAAAAAAAAAAkRoADAAAAAAAAANIUATgAAAAAAAAAIC0RgAMAAAAAAAAA0hIBOAAAAAAAAAAgLRGAAwAAAAAAAADSEgE4AAAAAAAAACAtEYADAAAAAAAAANISATgAAAAAAAAAIC0RgAMAAAAAAAAA0hIBOAAAAAAAAAAgLRGAAwAAAAAAAADSEgE4AAAAAAAAACAtEYADAAAAAAAAANKSNdENcwqKdezE85Xf71iF/c3y7Ptctes/VtOubb3ZPgAAAAAAAAAAkpJwAN7/zMmqOGV464OiQjmr+qpy6Cjt+vBd7Vw0v7faBwAAAAAAAABAUhIugZLfp3/sH2dZVH3GJJUPGZnSRgEAAAAAAAAA0FMJB+Cemj1xl2dYMtRv7ISUNQgAAAAAAAAAgFRIuATKrkVvyWK1qfi4E2XNtUWtyy0qSXnDAAAAAAAAAADoiYRHgAeaXNr40uP64L6fybM3ejS4NdumkkGDU944AAAAAAAAAACSlXAA3pG3riZmmSU7t8eNAQAAAAAAAAAgVTKtloSroBxkmqlvCQAAAAAAAAAAKZR53AlfO9JtAAAAAAAAAAAg5ZIqgQIAAAAAAAAAwNGOABwAAAAAAAAAkJYIwAEAAAAAAAAAaSmpANyMMwlmtjO/x40BAAAAAAAAACBVkgrAQ15PzLLKYWN0zJnn9LhBAAAAAAAAAACkQlIBuLdmT8wye2mJBkw8V2NvuVP20soeNwwAAAAAAAAAgJ5IKgCv27hG3trauOuy852qGnl6jxoFAAAAAAAAAEBPJT8JZiTS6aoMqzXp3QIAAAAAAAAAkApJBeDlg4fLWdkn7rpIS1j7P17eo0YBAAAAAAAAANBTSQ3VdvatlpkRvSzodsu1fbP2fbRMnr07U9E2AAAAAAAAAACSllQAnmnLjlm2b/UK7Vw0v8cNAgAAAAAAAAAgFZIqgZKRGftnflddjxsDAAAAAAAAAECqJD8JJgAAAAAAAAAARzECcAAAAAAAAABAWiIABwAAAAAAAACkJQJwAAAAAAAAAEBaIgAHAAAAAAAAAKSlpAJwW64j1e0AAAAAAAAAACClrJs3rkt444Lqgao4ZaTy+w+IWm6aknf/nlS3DQAAAAAAAACApGX0HTzM7Ljg8TvWxN2woc8vte2Ef1PEYo1Zl93SpOFLChN6wmvuGZZEMwEAAAAAAAAA6J6ES6DUVVwcN/yWpJIDi1PWIAAAAAAAAAAAUqEbNcCNuEvzPdvU/9OLUtQcAAAAAAAAAABSI6YEypDx58TdsGLoaRp43jdlzbZJkoywofrNG7Thxb916wnXLX47yaYCAAAAAAAAAJC4/wemM/DPEnDH+AAAAABJRU5ErkJggg==;" vertex="1" parent="1">
          <mxGeometry x="1453.7" y="-260" width="262.59" height="48.17" as="geometry" />
        </mxCell>
      </root>
    </mxGraphModel>
  </diagram>
</mxfile>
